<?xml version="1.0" encoding="UTF-8"?>
<svg id="Layer_1" data-name="Layer 1" xmlns="http://www.w3.org/2000/svg" viewBox="0 0 959.15 263.9">
  <defs>
    <style>
      .cls-1 {
        fill: #2b2b2b;
      }
    </style>
  </defs>
  <g>
    <path class="cls-1" d="m62.16,257.26H0v-5.27c3.51,0,6.4-1.26,8.65-3.78,1.17-1.17,1.96-2.7,2.36-4.59.41-1.89.61-3.83.61-5.81v-95.97c0-3.42-.23-5.89-.68-7.43-.72-2.34-2.16-4.14-4.32-5.4-.54-.27-1.4-.63-2.57-1.08-1.17-.45-2.39-.68-3.65-.68v-5.27l50.13-2.57v117.71c0,2.97.22,5.45.68,7.43.45,1.98,1.44,3.6,2.97,4.86,1.08.9,2.25,1.55,3.51,1.96,1.26.41,2.75.61,4.46.61v5.27Z"/>
    <path class="cls-1" d="m190.81,257.26h-37.57c-1.98,0-3.56-.29-4.73-.88-1.17-.58-2.39-1.78-3.65-3.58-.81-1.08-1.58-2.72-2.3-4.93-.72-2.21-.99-3.8-.81-4.8-3.33,5.41-8.36,9.59-15.07,12.57-6.71,2.97-13.76,4.46-21.15,4.46-6.76,0-12.84-1.26-18.24-3.78-5.41-2.52-9.14-6.08-11.22-10.68-.99-2.07-1.71-4.21-2.16-6.42-.45-2.21-.68-4.3-.68-6.28,0-10.09,5.47-18.87,16.42-26.35,10.95-7.48,25.29-12.57,43.04-15.27l8.24-1.22-.14-6.76c0-3.87-1.35-7.07-4.05-9.59-2.7-2.52-5.25-3.9-7.63-4.12-2.39-.22-3.99-.34-4.8-.34h-1.89c-9.55,0-18.29,3.65-26.22,10.95-2.43,2.16-4.37,4.24-5.81,6.22-1.44,1.98-2.84,4.46-4.19,7.43l-3.92-.68,4.32-35.94c.81.63,1.53,1.15,2.16,1.55.63.41,1.33.83,2.09,1.28.76.45,1.87.67,3.31.67,2.43,0,7.3-.95,14.59-2.84,5.13-1.35,8.56-2.16,10.27-2.43,3.51-.63,7.27-1.19,11.28-1.69,4.01-.49,7.63-.74,10.88-.74,5.13,0,9.84.54,14.12,1.62,4.28,1.08,8.63,2.97,13.04,5.68,3.6,2.34,6.42,5.7,8.45,10.07,2.03,4.37,3.04,9.26,3.04,14.66v48.24c0,.9-.02,1.76-.07,2.57-.05.81-.07,1.58-.07,2.3,0,1.8.16,3.36.47,4.66.32,1.31.99,2.7,2.03,4.19,1.03,1.49,2.14,2.55,3.31,3.18,1.17.63,2.93,1.26,5.27,1.89v5.13Zm-49.46-46.62v-8.78c-1.89-1.08-6.4.14-13.51,3.65-8.56,4.24-13.87,10.18-15.95,17.84-.27,1.08-.41,2.25-.41,3.51,0,3.33.99,6.26,2.97,8.78,1.98,2.52,4.68,3.78,8.11,3.78,1.35,0,2.93-.27,4.73-.81,4.05-1.35,7.41-4.8,10.07-10.34,2.66-5.54,3.99-11.42,3.99-17.63Z"/>
    <path class="cls-1" d="m291.48,224.83l-10.27,28.78c-1.98,1.71-6.28,3.45-12.91,5.2-6.62,1.76-12.95,2.64-18.99,2.64-3.97,0-7.3-.45-10-1.35-7.03-2.52-12.25-5.45-15.68-8.78-4.32-4.32-6.49-9.91-6.49-16.76v-64.05h-14.46v-4.73c2.52-1.17,4.55-2.3,6.08-3.38,2.07-1.53,3.92-3.42,5.54-5.68,3.33-4.6,5-9.96,5-16.09,0-3.42-.72-6.8-2.16-10.14,6.08-1.17,12.2-2.88,18.38-5.14,6.8-2.52,13.2-5.63,19.19-9.33v41.92h15.41c2.16,0,4.32-.18,6.49-.54,1.8-.18,3.96-.63,6.49-1.35l-6.08,15.81-3.24-.95-4.19-.41h-14.32v57.16c0,2.79.76,5.18,2.3,7.16,1.53,1.98,3.69,3.74,6.49,5.27,1.26.72,2.66,1.08,4.19,1.08,2.88,0,5.88-1.1,8.99-3.31,3.11-2.21,5.38-4.84,6.82-7.9l3.24-7.03,4.19,1.89Z"/>
    <path class="cls-1" d="m391.47,224.83l-10.27,28.78c-1.98,1.71-6.28,3.45-12.91,5.2-6.62,1.76-12.95,2.64-18.99,2.64-3.97,0-7.3-.45-10-1.35-7.03-2.52-12.25-5.45-15.68-8.78-4.32-4.32-6.49-9.91-6.49-16.76v-64.05h-14.46v-4.73c2.52-1.17,4.55-2.3,6.08-3.38,2.07-1.53,3.92-3.42,5.54-5.68,3.33-4.6,5-9.96,5-16.09,0-3.42-.72-6.8-2.16-10.14,6.08-1.17,12.2-2.88,18.38-5.14,6.8-2.52,13.2-5.63,19.19-9.33v41.92h15.41c2.16,0,4.32-.18,6.49-.54,1.8-.18,3.96-.63,6.49-1.35l-6.08,15.81-3.24-.95-4.19-.41h-14.32v57.16c0,2.79.76,5.18,2.3,7.16,1.53,1.98,3.69,3.74,6.49,5.27,1.26.72,2.66,1.08,4.19,1.08,2.88,0,5.88-1.1,8.99-3.31,3.11-2.21,5.38-4.84,6.82-7.9l3.24-7.03,4.19,1.89Z"/>
    <path class="cls-1" d="m519.17,194.02l-73.51,14.33c0,9.28,2.91,17.36,8.72,24.26,5.81,6.89,13.13,10.34,21.96,10.34,6.31,0,12.84-2.07,19.59-6.22,8.02-4.86,13.47-11.26,16.35-19.19l4.05,2.3-12.84,39.19c-1.62-.99-2.84-1.69-3.65-2.09s-1.58-.61-2.3-.61c-.36,0-6.8.77-19.32,2.3-6.67.81-11.76,1.22-15.27,1.22-2.43,0-4.82-.14-7.16-.41-15.05-1.8-27.57-7.57-37.57-17.3-10.54-10.18-15.81-22.43-15.81-36.75,0-15.22,5.74-27.84,17.23-37.84,11.49-10,25.52-15,42.09-15s29.19,3.65,38.38,10.95c8.2,6.49,14.55,16.67,19.05,30.54Zm-41.74-4.81c.08-.45.12-1.17.12-2.17,0-4.79-1.44-9.1-4.32-12.94-2.88-3.84-6.53-5.76-10.95-5.76-1.08,0-2.16.14-3.24.41-5.5,1.27-9.64,5.25-12.43,11.94-1.89,4.52-2.84,9.18-2.84,13.97,0,1.09.05,1.67.16,1.76l33.5-7.22Z"/>
    <path class="cls-1" d="m592,257.26h-62.16v-5.27c3.51,0,6.4-1.26,8.65-3.78,1.17-1.17,1.96-2.7,2.36-4.59.41-1.89.61-3.83.61-5.81v-95.97c0-3.42-.23-5.89-.67-7.43-.72-2.34-2.16-4.14-4.32-5.4-.54-.27-1.4-.63-2.57-1.08-1.17-.45-2.39-.68-3.65-.68v-5.27l50.14-2.57v117.71c0,2.97.22,5.45.67,7.43.45,1.98,1.44,3.6,2.97,4.86,1.08.9,2.25,1.55,3.51,1.96,1.26.41,2.75.61,4.46.61v5.27Z"/>
    <path class="cls-1" d="m720.65,257.26h-37.57c-1.98,0-3.56-.29-4.73-.88-1.17-.58-2.39-1.78-3.65-3.58-.81-1.08-1.58-2.72-2.3-4.93-.72-2.21-.99-3.8-.81-4.8-3.33,5.41-8.36,9.59-15.07,12.57-6.71,2.97-13.76,4.46-21.15,4.46-6.76,0-12.84-1.26-18.24-3.78s-9.15-6.08-11.22-10.68c-.99-2.07-1.71-4.21-2.16-6.42-.45-2.21-.67-4.3-.67-6.28,0-10.09,5.47-18.87,16.42-26.35,10.95-7.48,25.29-12.57,43.04-15.27l8.24-1.22-.14-6.76c0-3.87-1.35-7.07-4.05-9.59-2.7-2.52-5.25-3.9-7.63-4.12-2.39-.22-3.99-.34-4.8-.34h-1.89c-9.55,0-18.29,3.65-26.21,10.95-2.43,2.16-4.37,4.24-5.81,6.22-1.44,1.98-2.84,4.46-4.19,7.43l-3.92-.68,4.32-35.94c.81.63,1.53,1.15,2.16,1.55.63.41,1.33.83,2.09,1.28.76.45,1.87.67,3.31.67,2.43,0,7.3-.95,14.59-2.84,5.13-1.35,8.56-2.16,10.27-2.43,3.51-.63,7.27-1.19,11.28-1.69,4.01-.49,7.64-.74,10.88-.74,5.14,0,9.84.54,14.12,1.62,4.28,1.08,8.63,2.97,13.04,5.68,3.6,2.34,6.42,5.7,8.45,10.07,2.03,4.37,3.04,9.26,3.04,14.66v48.24c0,.9-.02,1.76-.07,2.57-.05.81-.07,1.58-.07,2.3,0,1.8.16,3.36.47,4.66.31,1.31.99,2.7,2.03,4.19,1.03,1.49,2.14,2.55,3.31,3.18,1.17.63,2.93,1.26,5.27,1.89v5.13Zm-49.46-46.62v-8.78c-1.89-1.08-6.4.14-13.51,3.65-8.56,4.24-13.87,10.18-15.95,17.84-.27,1.08-.41,2.25-.41,3.51,0,3.33.99,6.26,2.97,8.78,1.98,2.52,4.68,3.78,8.11,3.78,1.35,0,2.93-.27,4.73-.81,4.05-1.35,7.41-4.8,10.07-10.34,2.66-5.54,3.99-11.42,3.99-17.63Z"/>
    <path class="cls-1" d="m848.62,242.14c-5.59,5.94-12.07,10.03-19.46,12.28-6.13,1.89-14.01,2.83-23.65,2.83h-72.84v-5.27c2.07,0,3.72-.22,4.93-.67,1.22-.45,2.43-1.35,3.65-2.7,1.22-1.35,2.03-2.95,2.43-4.79.4-1.85.61-3.76.61-5.74v-96.65c0-3.42-.23-5.89-.67-7.42-.72-2.34-2.16-4.14-4.32-5.4-1.71-.9-3.78-1.35-6.22-1.35v-5.27l49.05-2.97-.54,35c1.08-.27,4.41-.41,10-.41,7.48,0,14.23.45,20.27,1.35,8.38,1.26,14.95,3.28,19.73,6.07,8.74,5.04,15.7,12.24,20.88,21.59,5.18,9.36,7.77,19.03,7.77,29.02,0,5.85-.95,11.36-2.84,16.53-1.89,5.17-4.82,9.83-8.78,13.97Zm-48.78,1.6c6.3-1.89,11.17-6.11,14.59-12.68,3.15-6.02,4.73-13.04,4.73-21.04,0-9.44-1.98-17.89-5.95-25.36-4.32-8.09-10.09-13.13-17.3-15.11-1.53-.36-3.58-.65-6.15-.88-2.57-.22-4.71-.34-6.42-.34h-2.3v72.03c1.17.63,2.34,1.21,3.51,1.75,3.51,1.62,6.8,2.43,9.87,2.43,1.71,0,3.51-.27,5.41-.81Z"/>
  </g>
  <g>
    <g id="_Radial_Repeat_" data-name="&amp;lt;Radial Repeat&amp;gt;">
      <g>
        <path class="cls-1" d="m945.02,124.22c-12.92-3.29-23.24,1.36-33.86,5.32-14.9,5.56-28.42,1.03-34.38-10.79-.45-.9-.68-1.91-1.52-4.33,16.65,6.46,31.32-.74,46.45-2.88,8.92-1.26,16.58.47,21.71,8.64.43.68.61,1.51,1.6,4.04Z"/>
        <path class="cls-1" d="m945.02,124.22c-12.92-3.29-23.24,1.36-33.86,5.32-14.9,5.56-28.42,1.03-34.38-10.79-.45-.9-.68-1.91-1.52-4.33,16.65,6.46,31.32-.74,46.45-2.88,8.92-1.26,16.58.47,21.71,8.64.43.68.61,1.51,1.6,4.04Z"/>
      </g>
    </g>
    <g id="_Radial_Repeat_-2" data-name="&amp;lt;Radial Repeat&amp;gt;">
      <g>
        <path class="cls-1" d="m880.53,157.58c-5.48-12.15-15.55-17.32-25.27-23.15-13.63-8.18-18.52-21.58-13-33.61.42-.91,1.07-1.72,2.44-3.89,5.33,17.04,20.11,24.02,31.21,34.53,6.55,6.19,9.97,13.26,6.78,22.36-.27.76-.8,1.42-2.16,3.77Z"/>
        <path class="cls-1" d="m880.53,157.58c-5.48-12.15-15.55-17.32-25.27-23.15-13.63-8.18-18.52-21.58-13-33.61.42-.91,1.07-1.72,2.44-3.89,5.33,17.04,20.11,24.02,31.21,34.53,6.55,6.19,9.97,13.26,6.78,22.36-.27.76-.8,1.42-2.16,3.77Z"/>
      </g>
    </g>
    <g id="_Radial_Repeat_-3" data-name="&amp;lt;Radial Repeat&amp;gt;">
      <g>
        <path class="cls-1" d="m814.23,127.96c6.08-11.86,3.85-22.96,2.34-34.2-2.11-15.76,5.32-27.93,18.17-31.12.98-.24,2.01-.24,4.56-.52-10,14.8-6.24,30.7-7.53,45.93-.76,8.98-4.15,16.06-13.25,19.24-.76.26-1.61.26-4.29.66Z"/>
        <path class="cls-1" d="m814.23,127.96c6.08-11.86,3.85-22.96,2.34-34.2-2.11-15.76,5.32-27.93,18.17-31.12.98-.24,2.01-.24,4.56-.52-10,14.8-6.24,30.7-7.53,45.93-.76,8.98-4.15,16.06-13.25,19.24-.76.26-1.61.26-4.29.66Z"/>
      </g>
    </g>
    <g id="_Radial_Repeat_-4" data-name="&amp;lt;Radial Repeat&amp;gt;">
      <g>
        <path class="cls-1" d="m796.05,57.66c13.07-2.64,20.35-11.31,28.2-19.49,11.01-11.47,25.16-13.25,35.66-5.2.8.61,1.44,1.42,3.25,3.24-17.8,1.41-27.9,14.26-40.61,22.75-7.49,5-15.15,6.77-23.31,1.64-.68-.43-1.21-1.1-3.2-2.94Z"/>
        <path class="cls-1" d="m796.05,57.66c13.07-2.64,20.35-11.31,28.2-19.49,11.01-11.47,25.16-13.25,35.66-5.2.8.61,1.44,1.42,3.25,3.24-17.8,1.41-27.9,14.26-40.61,22.75-7.49,5-15.15,6.77-23.31,1.64-.68-.43-1.21-1.1-3.2-2.94Z"/>
      </g>
    </g>
    <g id="_Radial_Repeat_-5" data-name="&amp;lt;Radial Repeat&amp;gt;">
      <g>
        <path class="cls-1" d="m839.68-.38c10.21,8.57,21.53,8.86,32.82,9.9,15.83,1.45,26.05,11.4,26.29,24.64.02,1.01-.21,2.02-.51,4.56-12.2-13.04-28.54-12.92-43.1-17.56-8.58-2.74-14.74-7.62-15.81-17.2-.09-.8.1-1.63.31-4.33Z"/>
        <path class="cls-1" d="m839.68-.38c10.21,8.57,21.53,8.86,32.82,9.9,15.83,1.45,26.05,11.4,26.29,24.64.02,1.01-.21,2.02-.51,4.56-12.2-13.04-28.54-12.92-43.1-17.56-8.58-2.74-14.74-7.62-15.81-17.2-.09-.8.1-1.63.31-4.33Z"/>
      </g>
    </g>
    <g id="_Radial_Repeat_-6" data-name="&amp;lt;Radial Repeat&amp;gt;">
      <g>
        <path class="cls-1" d="m912.27-2.46c-.33,13.33,6.5,22.35,12.73,31.83,8.74,13.29,7.32,27.47-2.87,35.92-.77.64-1.71,1.09-3.88,2.45,2.59-17.67-7.7-30.37-13.14-44.65-3.21-8.42-3.23-16.27,3.59-23.09.57-.57,1.34-.93,3.58-2.46Z"/>
        <path class="cls-1" d="m912.27-2.46c-.33,13.33,6.5,22.35,12.73,31.83,8.74,13.29,7.32,27.47-2.87,35.92-.77.64-1.71,1.09-3.88,2.45,2.59-17.67-7.7-30.37-13.14-44.65-3.21-8.42-3.23-16.27,3.59-23.09.57-.57,1.34-.93,3.58-2.46Z"/>
      </g>
    </g>
    <g id="_Radial_Repeat_-7" data-name="&amp;lt;Radial Repeat&amp;gt;">
      <g>
        <path class="cls-1" d="m959.15,53c-10.63,8.05-13.43,19.02-16.95,29.79-4.94,15.11-16.91,22.86-29.87,20.15-.98-.21-1.92-.66-4.33-1.51,15.43-8.99,18.95-24.95,26.71-38.11,4.58-7.76,10.71-12.67,20.29-11.59.8.09,1.56.46,4.16,1.26Z"/>
        <path class="cls-1" d="m959.15,53c-10.63,8.05-13.43,19.02-16.95,29.79-4.94,15.11-16.91,22.86-29.87,20.15-.98-.21-1.92-.66-4.33-1.51,15.43-8.99,18.95-24.95,26.71-38.11,4.58-7.76,10.71-12.67,20.29-11.59.8.09,1.56.46,4.16,1.26Z"/>
      </g>
    </g>
  </g>
</svg>