<?xml version="1.0" encoding="UTF-8"?>
<svg id="Layer_1" data-name="Layer 1" xmlns="http://www.w3.org/2000/svg" viewBox="0 0 719.3 705.84">
  <defs>
    <style>
      .cls-1 {
        fill: #2b2b2b;
      }
    </style>
  </defs>
  <g id="_Radial_Repeat_" data-name="&amp;lt;Radial Repeat&amp;gt;">
    <g>
      <path class="cls-1" d="m657,558.69c-56.97-14.51-102.49,5.99-149.34,23.48-65.7,24.52-125.32,4.53-151.64-47.59-2-3.96-3.01-8.42-6.71-19.1,73.43,28.47,138.14-3.28,204.88-12.69,39.34-5.55,73.15,2.09,95.74,38.09,1.88,3,2.71,6.67,7.07,17.8Z"/>
      <path class="cls-1" d="m657,558.69c-56.97-14.51-102.49,5.99-149.34,23.48-65.7,24.52-125.32,4.53-151.64-47.59-2-3.96-3.01-8.42-6.71-19.1,73.43,28.47,138.14-3.28,204.88-12.69,39.34-5.55,73.15,2.09,95.74,38.09,1.88,3,2.71,6.67,7.07,17.8Z"/>
    </g>
  </g>
  <g id="_Radial_Repeat_-2" data-name="&amp;lt;Radial Repeat&amp;gt;">
    <g>
      <path class="cls-1" d="m372.56,705.84c-24.18-53.59-68.59-76.39-111.47-102.12-60.13-36.08-81.68-95.16-57.34-148.22,1.85-4.03,4.71-7.6,10.74-17.16,23.52,75.16,88.69,105.95,137.66,152.27,28.87,27.3,43.97,58.49,29.91,98.6-1.17,3.34-3.53,6.27-9.51,16.63Z"/>
      <path class="cls-1" d="m372.56,705.84c-24.18-53.59-68.59-76.39-111.47-102.12-60.13-36.08-81.68-95.16-57.34-148.22,1.85-4.03,4.71-7.6,10.74-17.16,23.52,75.16,88.69,105.95,137.66,152.27,28.87,27.3,43.97,58.49,29.91,98.6-1.17,3.34-3.53,6.27-9.51,16.63Z"/>
    </g>
  </g>
  <g id="_Radial_Repeat_-3" data-name="&amp;lt;Radial Repeat&amp;gt;">
    <g>
      <path class="cls-1" d="m80.17,575.2c26.82-52.31,16.96-101.26,10.34-150.82-9.29-69.51,23.47-123.19,80.14-137.24,4.31-1.07,8.88-1.06,20.11-2.3-44.1,65.25-27.54,135.4-33.22,202.57-3.35,39.59-18.31,70.85-58.44,84.86-3.35,1.17-7.1,1.16-18.93,2.93Z"/>
      <path class="cls-1" d="m80.17,575.2c26.82-52.31,16.96-101.26,10.34-150.82-9.29-69.51,23.47-123.19,80.14-137.24,4.31-1.07,8.88-1.06,20.11-2.3-44.1,65.25-27.54,135.4-33.22,202.57-3.35,39.59-18.31,70.85-58.44,84.86-3.35,1.17-7.1,1.16-18.93,2.93Z"/>
    </g>
  </g>
  <g id="_Radial_Repeat_-4" data-name="&amp;lt;Radial Repeat&amp;gt;">
    <g>
      <path class="cls-1" d="m0,265.15c57.62-11.64,89.74-49.87,124.36-85.95,48.55-50.6,110.95-58.46,157.27-22.92,3.52,2.7,6.36,6.28,14.34,14.29-78.51,6.21-123.03,62.89-179.09,100.33-33.04,22.07-66.81,29.85-102.79,7.22-3-1.89-5.33-4.83-14.1-12.97Z"/>
      <path class="cls-1" d="m0,265.15c57.62-11.64,89.74-49.87,124.36-85.95,48.55-50.6,110.95-58.46,157.27-22.92,3.52,2.7,6.36,6.28,14.34,14.29-78.51,6.21-123.03,62.89-179.09,100.33-33.04,22.07-66.81,29.85-102.79,7.22-3-1.89-5.33-4.83-14.1-12.97Z"/>
    </g>
  </g>
  <g id="_Radial_Repeat_-5" data-name="&amp;lt;Radial Repeat&amp;gt;">
    <g>
      <path class="cls-1" d="m192.43,9.16c45.03,37.79,94.94,39.07,144.74,43.64,69.83,6.41,114.88,50.29,115.97,108.67.08,4.43-.94,8.89-2.24,20.12-53.8-57.51-125.88-56.98-190.1-77.46-37.85-12.07-65-33.62-69.73-75.86-.39-3.52.45-7.18,1.35-19.11Z"/>
      <path class="cls-1" d="m192.43,9.16c45.03,37.79,94.94,39.07,144.74,43.64,69.83,6.41,114.88,50.29,115.97,108.67.08,4.43-.94,8.89-2.24,20.12-53.8-57.51-125.88-56.98-190.1-77.46-37.85-12.07-65-33.62-69.73-75.86-.39-3.52.45-7.18,1.35-19.11Z"/>
    </g>
  </g>
  <g id="_Radial_Repeat_-6" data-name="&amp;lt;Radial Repeat&amp;gt;">
    <g>
      <path class="cls-1" d="m512.54,0c-1.47,58.77,28.65,98.59,56.12,140.37,38.53,58.6,32.3,121.17-12.65,158.42-3.42,2.83-7.54,4.8-17.12,10.8,11.42-77.93-33.94-133.94-57.96-196.92-14.16-37.12-14.24-71.78,15.84-101.81C499.26,8.35,502.65,6.73,512.54,0Z"/>
      <path class="cls-1" d="m512.54,0c-1.47,58.77,28.65,98.59,56.12,140.37,38.53,58.6,32.3,121.17-12.65,158.42-3.42,2.83-7.54,4.8-17.12,10.8,11.42-77.93-33.94-133.94-57.96-196.92-14.16-37.12-14.24-71.78,15.84-101.81C499.26,8.35,502.65,6.73,512.54,0Z"/>
    </g>
  </g>
  <g id="_Radial_Repeat_-7" data-name="&amp;lt;Radial Repeat&amp;gt;">
    <g>
      <path class="cls-1" d="m719.3,244.56c-46.86,35.49-59.22,83.87-74.76,131.4-21.79,66.65-74.6,100.81-131.75,88.88-4.34-.91-8.46-2.9-19.12-6.66,68.04-39.66,83.56-110.05,117.82-168.1,20.19-34.22,47.24-55.89,89.48-51.1,3.52.4,6.9,2.04,18.33,5.57Z"/>
      <path class="cls-1" d="m719.3,244.56c-46.86,35.49-59.22,83.87-74.76,131.4-21.79,66.65-74.6,100.81-131.75,88.88-4.34-.91-8.46-2.9-19.12-6.66,68.04-39.66,83.56-110.05,117.82-168.1,20.19-34.22,47.24-55.89,89.48-51.1,3.52.4,6.9,2.04,18.33,5.57Z"/>
    </g>
  </g>
</svg>