<?xml version="1.0" encoding="UTF-8"?>
<svg id="Layer_1" data-name="Layer 1" xmlns="http://www.w3.org/2000/svg" viewBox="0 0 1024 1024">
  <defs>
    <style>
      .cls-1 {
        fill: #8bb0a6;
      }

      .cls-2 {
        fill: #2b2b2b;
      }
    </style>
  </defs>
  <circle class="cls-2" cx="512" cy="512" r="512"/>
  <g>
    <g id="_Radial_Repeat_" data-name="&amp;lt;Radial Repeat&amp;gt;">
      <g>
        <path class="cls-1" d="m795.38,708.1c-54.29-13.83-97.68,5.71-142.33,22.38-62.61,23.37-119.44,4.32-144.51-45.35-1.9-3.77-2.87-8.02-6.4-18.2,69.98,27.14,131.65-3.13,195.26-12.1,37.5-5.29,69.71,1.99,91.24,36.3,1.79,2.86,2.58,6.35,6.74,16.97Z"/>
        <path class="cls-1" d="m795.38,708.1c-54.29-13.83-97.68,5.71-142.33,22.38-62.61,23.37-119.44,4.32-144.51-45.35-1.9-3.77-2.87-8.02-6.4-18.2,69.98,27.14,131.65-3.13,195.26-12.1,37.5-5.29,69.71,1.99,91.24,36.3,1.79,2.86,2.58,6.35,6.74,16.97Z"/>
      </g>
    </g>
    <g id="_Radial_Repeat_-2" data-name="&amp;lt;Radial Repeat&amp;gt;">
      <g>
        <path class="cls-1" d="m524.31,848.34c-23.04-51.07-65.37-72.8-106.23-97.32-57.31-34.38-77.84-90.69-54.64-141.26,1.76-3.84,4.49-7.24,10.24-16.35,22.42,71.63,84.53,100.97,131.2,145.12,27.51,26.02,41.91,55.74,28.5,93.97-1.12,3.19-3.36,5.98-9.06,15.85Z"/>
        <path class="cls-1" d="m524.31,848.34c-23.04-51.07-65.37-72.8-106.23-97.32-57.31-34.38-77.84-90.69-54.64-141.26,1.76-3.84,4.49-7.24,10.24-16.35,22.42,71.63,84.53,100.97,131.2,145.12,27.51,26.02,41.91,55.74,28.5,93.97-1.12,3.19-3.36,5.98-9.06,15.85Z"/>
      </g>
    </g>
    <g id="_Radial_Repeat_-3" data-name="&amp;lt;Radial Repeat&amp;gt;">
      <g>
        <path class="cls-1" d="m245.65,723.84c25.56-49.85,16.17-96.5,9.85-143.74-8.85-66.24,22.37-117.4,76.37-130.8,4.1-1.02,8.46-1.01,19.17-2.19-42.03,62.19-26.24,129.04-31.66,193.05-3.19,37.73-17.45,67.52-55.7,80.87-3.19,1.11-6.77,1.1-18.04,2.79Z"/>
        <path class="cls-1" d="m245.65,723.84c25.56-49.85,16.17-96.5,9.85-143.74-8.85-66.24,22.37-117.4,76.37-130.8,4.1-1.02,8.46-1.01,19.17-2.19-42.03,62.19-26.24,129.04-31.66,193.05-3.19,37.73-17.45,67.52-55.7,80.87-3.19,1.11-6.77,1.1-18.04,2.79Z"/>
      </g>
    </g>
    <g id="_Radial_Repeat_-4" data-name="&amp;lt;Radial Repeat&amp;gt;">
      <g>
        <path class="cls-1" d="m169.25,428.36c54.92-11.1,85.52-47.53,118.52-81.91,46.27-48.22,105.73-55.71,149.88-21.84,3.35,2.57,6.06,5.99,13.66,13.62-74.82,5.92-117.25,59.94-170.67,95.62-31.49,21.03-63.67,28.45-97.96,6.88-2.86-1.8-5.08-4.61-13.43-12.36Z"/>
        <path class="cls-1" d="m169.25,428.36c54.92-11.1,85.52-47.53,118.52-81.91,46.27-48.22,105.73-55.71,149.88-21.84,3.35,2.57,6.06,5.99,13.66,13.62-74.82,5.92-117.25,59.94-170.67,95.62-31.49,21.03-63.67,28.45-97.96,6.88-2.86-1.8-5.08-4.61-13.43-12.36Z"/>
      </g>
    </g>
    <g id="_Radial_Repeat_-5" data-name="&amp;lt;Radial Repeat&amp;gt;">
      <g>
        <path class="cls-1" d="m352.63,184.39c42.92,36.02,90.48,37.23,137.94,41.59,66.55,6.11,109.48,47.93,110.52,103.56.08,4.23-.9,8.47-2.13,19.17-51.28-54.81-119.97-54.3-181.17-73.82-36.08-11.51-61.94-32.04-66.45-72.3-.38-3.36.43-6.84,1.29-18.21Z"/>
        <path class="cls-1" d="m352.63,184.39c42.92,36.02,90.48,37.23,137.94,41.59,66.55,6.11,109.48,47.93,110.52,103.56.08,4.23-.9,8.47-2.13,19.17-51.28-54.81-119.97-54.3-181.17-73.82-36.08-11.51-61.94-32.04-66.45-72.3-.38-3.36.43-6.84,1.29-18.21Z"/>
      </g>
    </g>
    <g id="_Radial_Repeat_-6" data-name="&amp;lt;Radial Repeat&amp;gt;">
      <g>
        <path class="cls-1" d="m657.71,175.66c-1.4,56.01,27.3,93.96,53.49,133.78,36.72,55.84,30.79,115.48-12.06,150.98-3.25,2.7-7.19,4.58-16.32,10.29,10.88-74.26-32.34-127.65-55.24-187.67-13.5-35.38-13.57-68.4,15.09-97.03,2.39-2.39,5.62-3.93,15.04-10.35Z"/>
        <path class="cls-1" d="m657.71,175.66c-1.4,56.01,27.3,93.96,53.49,133.78,36.72,55.84,30.79,115.48-12.06,150.98-3.25,2.7-7.19,4.58-16.32,10.29,10.88-74.26-32.34-127.65-55.24-187.67-13.5-35.38-13.57-68.4,15.09-97.03,2.39-2.39,5.62-3.93,15.04-10.35Z"/>
      </g>
    </g>
    <g id="_Radial_Repeat_-7" data-name="&amp;lt;Radial Repeat&amp;gt;">
      <g>
        <path class="cls-1" d="m854.75,408.73c-44.66,33.83-56.43,79.93-71.24,125.23-20.77,63.52-71.09,96.07-125.56,84.71-4.14-.86-8.06-2.76-18.22-6.34,64.85-37.79,79.63-104.87,112.28-160.2,19.25-32.61,45.02-53.26,85.27-48.7,3.36.38,6.58,1.95,17.47,5.31Z"/>
        <path class="cls-1" d="m854.75,408.73c-44.66,33.83-56.43,79.93-71.24,125.23-20.77,63.52-71.09,96.07-125.56,84.71-4.14-.86-8.06-2.76-18.22-6.34,64.85-37.79,79.63-104.87,112.28-160.2,19.25-32.61,45.02-53.26,85.27-48.7,3.36.38,6.58,1.95,17.47,5.31Z"/>
      </g>
    </g>
  </g>
</svg>