<?xml version="1.0" encoding="UTF-8"?>
<svg id="Layer_1" data-name="Layer 1" xmlns="http://www.w3.org/2000/svg" viewBox="0 0 256 256">
  <defs>
    <style>
      .cls-1 {
        fill: #8bb0a6;
      }

      .cls-2 {
        fill: #2b2b2b;
      }
    </style>
  </defs>
  <circle class="cls-2" cx="128" cy="128" r="128"/>
  <g>
    <g id="_Radial_Repeat_" data-name="&amp;lt;Radial Repeat&amp;gt;">
      <g>
        <path class="cls-1" d="m198.84,177.03c-13.57-3.46-24.42,1.43-35.58,5.59-15.65,5.84-29.86,1.08-36.13-11.34-.48-.94-.72-2.01-1.6-4.55,17.5,6.78,32.91-.78,48.81-3.02,9.37-1.32,17.43.5,22.81,9.08.45.72.64,1.59,1.68,4.24Z"/>
        <path class="cls-1" d="m198.84,177.03c-13.57-3.46-24.42,1.43-35.58,5.59-15.65,5.84-29.86,1.08-36.13-11.34-.48-.94-.72-2.01-1.6-4.55,17.5,6.78,32.91-.78,48.81-3.02,9.37-1.32,17.43.5,22.81,9.08.45.72.64,1.59,1.68,4.24Z"/>
      </g>
    </g>
    <g id="_Radial_Repeat_-2" data-name="&amp;lt;Radial Repeat&amp;gt;">
      <g>
        <path class="cls-1" d="m131.08,212.08c-5.76-12.77-16.34-18.2-26.56-24.33-14.33-8.6-19.46-22.67-13.66-35.32.44-.96,1.12-1.81,2.56-4.09,5.6,17.91,21.13,25.24,32.8,36.28,6.88,6.5,10.48,13.94,7.13,23.49-.28.8-.84,1.49-2.27,3.96Z"/>
        <path class="cls-1" d="m131.08,212.08c-5.76-12.77-16.34-18.2-26.56-24.33-14.33-8.6-19.46-22.67-13.66-35.32.44-.96,1.12-1.81,2.56-4.09,5.6,17.91,21.13,25.24,32.8,36.28,6.88,6.5,10.48,13.94,7.13,23.49-.28.8-.84,1.49-2.27,3.96Z"/>
      </g>
    </g>
    <g id="_Radial_Repeat_-3" data-name="&amp;lt;Radial Repeat&amp;gt;">
      <g>
        <path class="cls-1" d="m61.41,180.96c6.39-12.46,4.04-24.12,2.46-35.93-2.21-16.56,5.59-29.35,19.09-32.7,1.03-.25,2.12-.25,4.79-.55-10.51,15.55-6.56,32.26-7.91,48.26-.8,9.43-4.36,16.88-13.92,20.22-.8.28-1.69.28-4.51.7Z"/>
        <path class="cls-1" d="m61.41,180.96c6.39-12.46,4.04-24.12,2.46-35.93-2.21-16.56,5.59-29.35,19.09-32.7,1.03-.25,2.12-.25,4.79-.55-10.51,15.55-6.56,32.26-7.91,48.26-.8,9.43-4.36,16.88-13.92,20.22-.8.28-1.69.28-4.51.7Z"/>
      </g>
    </g>
    <g id="_Radial_Repeat_-4" data-name="&amp;lt;Radial Repeat&amp;gt;">
      <g>
        <path class="cls-1" d="m42.31,107.09c13.73-2.77,21.38-11.88,29.63-20.48,11.57-12.06,26.43-13.93,37.47-5.46.84.64,1.52,1.5,3.42,3.41-18.71,1.48-29.31,14.98-42.67,23.9-7.87,5.26-15.92,7.11-24.49,1.72-.71-.45-1.27-1.15-3.36-3.09Z"/>
        <path class="cls-1" d="m42.31,107.09c13.73-2.77,21.38-11.88,29.63-20.48,11.57-12.06,26.43-13.93,37.47-5.46.84.64,1.52,1.5,3.42,3.41-18.71,1.48-29.31,14.98-42.67,23.9-7.87,5.26-15.92,7.11-24.49,1.72-.71-.45-1.27-1.15-3.36-3.09Z"/>
      </g>
    </g>
    <g id="_Radial_Repeat_-5" data-name="&amp;lt;Radial Repeat&amp;gt;">
      <g>
        <path class="cls-1" d="m88.16,46.1c10.73,9,22.62,9.31,34.48,10.4,16.64,1.53,27.37,11.98,27.63,25.89.02,1.06-.23,2.12-.53,4.79-12.82-13.7-29.99-13.58-45.29-18.46-9.02-2.88-15.49-8.01-16.61-18.07-.09-.84.11-1.71.32-4.55Z"/>
        <path class="cls-1" d="m88.16,46.1c10.73,9,22.62,9.31,34.48,10.4,16.64,1.53,27.37,11.98,27.63,25.89.02,1.06-.23,2.12-.53,4.79-12.82-13.7-29.99-13.58-45.29-18.46-9.02-2.88-15.49-8.01-16.61-18.07-.09-.84.11-1.71.32-4.55Z"/>
      </g>
    </g>
    <g id="_Radial_Repeat_-6" data-name="&amp;lt;Radial Repeat&amp;gt;">
      <g>
        <path class="cls-1" d="m164.43,43.92c-.35,14,6.83,23.49,13.37,33.44,9.18,13.96,7.7,28.87-3.01,37.74-.81.67-1.8,1.14-4.08,2.57,2.72-18.57-8.09-31.91-13.81-46.92-3.37-8.84-3.39-17.1,3.77-24.26.6-.6,1.41-.98,3.76-2.59Z"/>
        <path class="cls-1" d="m164.43,43.92c-.35,14,6.83,23.49,13.37,33.44,9.18,13.96,7.7,28.87-3.01,37.74-.81.67-1.8,1.14-4.08,2.57,2.72-18.57-8.09-31.91-13.81-46.92-3.37-8.84-3.39-17.1,3.77-24.26.6-.6,1.41-.98,3.76-2.59Z"/>
      </g>
    </g>
    <g id="_Radial_Repeat_-7" data-name="&amp;lt;Radial Repeat&amp;gt;">
      <g>
        <path class="cls-1" d="m213.69,102.18c-11.17,8.46-14.11,19.98-17.81,31.31-5.19,15.88-17.77,24.02-31.39,21.18-1.03-.22-2.01-.69-4.55-1.59,16.21-9.45,19.91-26.22,28.07-40.05,4.81-8.15,11.25-13.31,21.32-12.17.84.1,1.64.49,4.37,1.33Z"/>
        <path class="cls-1" d="m213.69,102.18c-11.17,8.46-14.11,19.98-17.81,31.31-5.19,15.88-17.77,24.02-31.39,21.18-1.03-.22-2.01-.69-4.55-1.59,16.21-9.45,19.91-26.22,28.07-40.05,4.81-8.15,11.25-13.31,21.32-12.17.84.1,1.64.49,4.37,1.33Z"/>
      </g>
    </g>
  </g>
</svg>