<?xml version="1.0" encoding="UTF-8"?>
<svg id="Layer_1" data-name="Layer 1" xmlns="http://www.w3.org/2000/svg" viewBox="0 0 128 128">
  <defs>
    <style>
      .cls-1 {
        fill: #8bb0a6;
      }

      .cls-2 {
        fill: #2b2b2b;
      }
    </style>
  </defs>
  <circle class="cls-2" cx="64" cy="64" r="64"/>
  <g>
    <g id="_Radial_Repeat_" data-name="&amp;lt;Radial Repeat&amp;gt;">
      <g>
        <path class="cls-1" d="m99.42,88.51c-6.79-1.73-12.21.71-17.79,2.8-7.83,2.92-14.93.54-18.06-5.67-.24-.47-.36-1-.8-2.28,8.75,3.39,16.46-.39,24.41-1.51,4.69-.66,8.71.25,11.4,4.54.22.36.32.79.84,2.12Z"/>
        <path class="cls-1" d="m99.42,88.51c-6.79-1.73-12.21.71-17.79,2.8-7.83,2.92-14.93.54-18.06-5.67-.24-.47-.36-1-.8-2.28,8.75,3.39,16.46-.39,24.41-1.51,4.69-.66,8.71.25,11.4,4.54.22.36.32.79.84,2.12Z"/>
      </g>
    </g>
    <g id="_Radial_Repeat_-2" data-name="&amp;lt;Radial Repeat&amp;gt;">
      <g>
        <path class="cls-1" d="m65.54,106.04c-2.88-6.38-8.17-9.1-13.28-12.17-7.16-4.3-9.73-11.34-6.83-17.66.22-.48.56-.91,1.28-2.04,2.8,8.95,10.57,12.62,16.4,18.14,3.44,3.25,5.24,6.97,3.56,11.75-.14.4-.42.75-1.13,1.98Z"/>
        <path class="cls-1" d="m65.54,106.04c-2.88-6.38-8.17-9.1-13.28-12.17-7.16-4.3-9.73-11.34-6.83-17.66.22-.48.56-.91,1.28-2.04,2.8,8.95,10.57,12.62,16.4,18.14,3.44,3.25,5.24,6.97,3.56,11.75-.14.4-.42.75-1.13,1.98Z"/>
      </g>
    </g>
    <g id="_Radial_Repeat_-3" data-name="&amp;lt;Radial Repeat&amp;gt;">
      <g>
        <path class="cls-1" d="m30.71,90.48c3.2-6.23,2.02-12.06,1.23-17.97-1.11-8.28,2.8-14.68,9.55-16.35.51-.13,1.06-.13,2.4-.27-5.25,7.77-3.28,16.13-3.96,24.13-.4,4.72-2.18,8.44-6.96,10.11-.4.14-.85.14-2.26.35Z"/>
        <path class="cls-1" d="m30.71,90.48c3.2-6.23,2.02-12.06,1.23-17.97-1.11-8.28,2.8-14.68,9.55-16.35.51-.13,1.06-.13,2.4-.27-5.25,7.77-3.28,16.13-3.96,24.13-.4,4.72-2.18,8.44-6.96,10.11-.4.14-.85.14-2.26.35Z"/>
      </g>
    </g>
    <g id="_Radial_Repeat_-4" data-name="&amp;lt;Radial Repeat&amp;gt;">
      <g>
        <path class="cls-1" d="m21.16,53.54c6.86-1.39,10.69-5.94,14.82-10.24,5.78-6.03,13.22-6.96,18.73-2.73.42.32.76.75,1.71,1.7-9.35.74-14.66,7.49-21.33,11.95-3.94,2.63-7.96,3.56-12.24.86-.36-.22-.64-.58-1.68-1.55Z"/>
        <path class="cls-1" d="m21.16,53.54c6.86-1.39,10.69-5.94,14.82-10.24,5.78-6.03,13.22-6.96,18.73-2.73.42.32.76.75,1.71,1.7-9.35.74-14.66,7.49-21.33,11.95-3.94,2.63-7.96,3.56-12.24.86-.36-.22-.64-.58-1.68-1.55Z"/>
      </g>
    </g>
    <g id="_Radial_Repeat_-5" data-name="&amp;lt;Radial Repeat&amp;gt;">
      <g>
        <path class="cls-1" d="m44.08,23.05c5.36,4.5,11.31,4.65,17.24,5.2,8.32.76,13.69,5.99,13.82,12.95,0,.53-.11,1.06-.27,2.4-6.41-6.85-15-6.79-22.65-9.23-4.51-1.44-7.74-4-8.31-9.04-.05-.42.05-.86.16-2.28Z"/>
        <path class="cls-1" d="m44.08,23.05c5.36,4.5,11.31,4.65,17.24,5.2,8.32.76,13.69,5.99,13.82,12.95,0,.53-.11,1.06-.27,2.4-6.41-6.85-15-6.79-22.65-9.23-4.51-1.44-7.74-4-8.31-9.04-.05-.42.05-.86.16-2.28Z"/>
      </g>
    </g>
    <g id="_Radial_Repeat_-6" data-name="&amp;lt;Radial Repeat&amp;gt;">
      <g>
        <path class="cls-1" d="m82.21,21.96c-.18,7,3.41,11.74,6.69,16.72,4.59,6.98,3.85,14.44-1.51,18.87-.41.34-.9.57-2.04,1.29,1.36-9.28-4.04-15.96-6.91-23.46-1.69-4.42-1.7-8.55,1.89-12.13.3-.3.7-.49,1.88-1.29Z"/>
        <path class="cls-1" d="m82.21,21.96c-.18,7,3.41,11.74,6.69,16.72,4.59,6.98,3.85,14.44-1.51,18.87-.41.34-.9.57-2.04,1.29,1.36-9.28-4.04-15.96-6.91-23.46-1.69-4.42-1.7-8.55,1.89-12.13.3-.3.7-.49,1.88-1.29Z"/>
      </g>
    </g>
    <g id="_Radial_Repeat_-7" data-name="&amp;lt;Radial Repeat&amp;gt;">
      <g>
        <path class="cls-1" d="m106.84,51.09c-5.58,4.23-7.05,9.99-8.91,15.65-2.6,7.94-8.89,12.01-15.69,10.59-.52-.11-1.01-.35-2.28-.79,8.11-4.72,9.95-13.11,14.04-20.02,2.41-4.08,5.63-6.66,10.66-6.09.42.05.82.24,2.18.66Z"/>
        <path class="cls-1" d="m106.84,51.09c-5.58,4.23-7.05,9.99-8.91,15.65-2.6,7.94-8.89,12.01-15.69,10.59-.52-.11-1.01-.35-2.28-.79,8.11-4.72,9.95-13.11,14.04-20.02,2.41-4.08,5.63-6.66,10.66-6.09.42.05.82.24,2.18.66Z"/>
      </g>
    </g>
  </g>
</svg>