<?xml version="1.0" encoding="UTF-8"?>
<svg id="Layer_1" data-name="Layer 1" xmlns="http://www.w3.org/2000/svg" viewBox="0 0 512 512">
  <defs>
    <style>
      .cls-1 {
        fill: #8bb0a6;
      }

      .cls-2 {
        fill: #2b2b2b;
      }
    </style>
  </defs>
  <circle class="cls-2" cx="256" cy="256" r="256"/>
  <g>
    <g id="_Radial_Repeat_" data-name="&amp;lt;Radial Repeat&amp;gt;">
      <g>
        <path class="cls-1" d="m397.69,354.05c-27.15-6.91-48.84,2.86-71.16,11.19-31.31,11.68-59.72,2.16-72.26-22.68-.95-1.89-1.43-4.01-3.2-9.1,34.99,13.57,65.82-1.56,97.63-6.05,18.75-2.64,34.85,1,45.62,18.15.9,1.43,1.29,3.18,3.37,8.48Z"/>
        <path class="cls-1" d="m397.69,354.05c-27.15-6.91-48.84,2.86-71.16,11.19-31.31,11.68-59.72,2.16-72.26-22.68-.95-1.89-1.43-4.01-3.2-9.1,34.99,13.57,65.82-1.56,97.63-6.05,18.75-2.64,34.85,1,45.62,18.15.9,1.43,1.29,3.18,3.37,8.48Z"/>
      </g>
    </g>
    <g id="_Radial_Repeat_-2" data-name="&amp;lt;Radial Repeat&amp;gt;">
      <g>
        <path class="cls-1" d="m262.15,424.17c-11.52-25.53-32.68-36.4-53.12-48.66-28.65-17.19-38.92-45.34-27.32-70.63.88-1.92,2.24-3.62,5.12-8.18,11.21,35.82,42.26,50.49,65.6,72.56,13.76,13.01,20.95,27.87,14.25,46.98-.56,1.59-1.68,2.99-4.53,7.92Z"/>
        <path class="cls-1" d="m262.15,424.17c-11.52-25.53-32.68-36.4-53.12-48.66-28.65-17.19-38.92-45.34-27.32-70.63.88-1.92,2.24-3.62,5.12-8.18,11.21,35.82,42.26,50.49,65.6,72.56,13.76,13.01,20.95,27.87,14.25,46.98-.56,1.59-1.68,2.99-4.53,7.92Z"/>
      </g>
    </g>
    <g id="_Radial_Repeat_-3" data-name="&amp;lt;Radial Repeat&amp;gt;">
      <g>
        <path class="cls-1" d="m122.83,361.92c12.78-24.93,8.08-48.25,4.93-71.87-4.43-33.12,11.18-58.7,38.19-65.4,2.05-.51,4.23-.5,9.58-1.09-21.01,31.09-13.12,64.52-15.83,96.53-1.6,18.87-8.73,33.76-27.85,40.44-1.59.56-3.38.55-9.02,1.4Z"/>
        <path class="cls-1" d="m122.83,361.92c12.78-24.93,8.08-48.25,4.93-71.87-4.43-33.12,11.18-58.7,38.19-65.4,2.05-.51,4.23-.5,9.58-1.09-21.01,31.09-13.12,64.52-15.83,96.53-1.6,18.87-8.73,33.76-27.85,40.44-1.59.56-3.38.55-9.02,1.4Z"/>
      </g>
    </g>
    <g id="_Radial_Repeat_-4" data-name="&amp;lt;Radial Repeat&amp;gt;">
      <g>
        <path class="cls-1" d="m84.62,214.18c27.46-5.55,42.76-23.76,59.26-40.96,23.14-24.11,52.87-27.86,74.94-10.92,1.68,1.29,3.03,2.99,6.83,6.81-37.41,2.96-58.63,29.97-85.34,47.81-15.74,10.52-31.83,14.23-48.98,3.44-1.43-.9-2.54-2.3-6.72-6.18Z"/>
        <path class="cls-1" d="m84.62,214.18c27.46-5.55,42.76-23.76,59.26-40.96,23.14-24.11,52.87-27.86,74.94-10.92,1.68,1.29,3.03,2.99,6.83,6.81-37.41,2.96-58.63,29.97-85.34,47.81-15.74,10.52-31.83,14.23-48.98,3.44-1.43-.9-2.54-2.3-6.72-6.18Z"/>
      </g>
    </g>
    <g id="_Radial_Repeat_-5" data-name="&amp;lt;Radial Repeat&amp;gt;">
      <g>
        <path class="cls-1" d="m176.32,92.2c21.46,18.01,45.24,18.62,68.97,20.8,33.28,3.06,54.74,23.97,55.26,51.78.04,2.11-.45,4.24-1.07,9.59-25.64-27.41-59.98-27.15-90.58-36.91-18.04-5.75-30.97-16.02-33.23-36.15-.19-1.68.22-3.42.64-9.11Z"/>
        <path class="cls-1" d="m176.32,92.2c21.46,18.01,45.24,18.62,68.97,20.8,33.28,3.06,54.74,23.97,55.26,51.78.04,2.11-.45,4.24-1.07,9.59-25.64-27.41-59.98-27.15-90.58-36.91-18.04-5.75-30.97-16.02-33.23-36.15-.19-1.68.22-3.42.64-9.11Z"/>
      </g>
    </g>
    <g id="_Radial_Repeat_-6" data-name="&amp;lt;Radial Repeat&amp;gt;">
      <g>
        <path class="cls-1" d="m328.85,87.83c-.7,28,13.65,46.98,26.74,66.89,18.36,27.92,15.39,57.74-6.03,75.49-1.63,1.35-3.59,2.29-8.16,5.14,5.44-37.13-16.17-63.82-27.62-93.83-6.75-17.69-6.79-34.2,7.55-48.52,1.19-1.19,2.81-1.96,7.52-5.17Z"/>
        <path class="cls-1" d="m328.85,87.83c-.7,28,13.65,46.98,26.74,66.89,18.36,27.92,15.39,57.74-6.03,75.49-1.63,1.35-3.59,2.29-8.16,5.14,5.44-37.13-16.17-63.82-27.62-93.83-6.75-17.69-6.79-34.2,7.55-48.52,1.19-1.19,2.81-1.96,7.52-5.17Z"/>
      </g>
    </g>
    <g id="_Radial_Repeat_-7" data-name="&amp;lt;Radial Repeat&amp;gt;">
      <g>
        <path class="cls-1" d="m427.38,204.37c-22.33,16.91-28.22,39.96-35.62,62.61-10.38,31.76-35.55,48.04-62.78,42.35-2.07-.43-4.03-1.38-9.11-3.17,32.42-18.9,39.82-52.44,56.14-80.1,9.62-16.31,22.51-26.63,42.64-24.35,1.68.19,3.29.97,8.73,2.65Z"/>
        <path class="cls-1" d="m427.38,204.37c-22.33,16.91-28.22,39.96-35.62,62.61-10.38,31.76-35.55,48.04-62.78,42.35-2.07-.43-4.03-1.38-9.11-3.17,32.42-18.9,39.82-52.44,56.14-80.1,9.62-16.31,22.51-26.63,42.64-24.35,1.68.19,3.29.97,8.73,2.65Z"/>
      </g>
    </g>
  </g>
</svg>