<?xml version="1.0" encoding="UTF-8"?>
<svg id="Layer_2" data-name="Layer 2" xmlns="http://www.w3.org/2000/svg" viewBox="0 0 331.51 49.78">
  <defs>
    <style>
      .cls-1 {
        fill: #ffe14f;
        fill-rule: evenodd;
      }
    </style>
  </defs>
  <g id="Layer_1-2" data-name="Layer 1">
    <g>
      <path class="cls-1" d="m3.54,15.18h-.47v.42c.34.03.5-.11.47-.42Z"/>
      <path class="cls-1" d="m5.43,8.52c-.51-.04-.84.37-.47.69.48.05.33-.45.47-.69Z"/>
      <path class="cls-1" d="m6.06,9.91c.02-.34.03-.67-.31-.69-.05.19-.22.27-.16.56.22,0,.35.07.47.14Z"/>
      <path class="cls-1" d="m8.89,4.91c.15-.42-1.16-.68-1.1-.14.34.36.88-.12,1.1.14Z"/>
      <path class="cls-1" d="m7.95,39.48c-.12.53.75.53.63,0h-.63Z"/>
      <path class="cls-1" d="m9.99,46.14c-.55.56.51.33,0,0h0Z"/>
      <path class="cls-1" d="m11.25,4.63c-.48.04-1.22-.15-1.26.28.64-.02,1.14.38,1.26-.28Z"/>
      <path class="cls-1" d="m11.41,40.45h.31v-.28h-.31v.28Z"/>
      <path class="cls-1" d="m12.51,40.87c-.06,0,.5-.26.47-.28-.24-.21-.91.21-.47.28Z"/>
      <path class="cls-1" d="m13.3,4.77c-.35-.06-.85-.32-.94.14.2.19.94.24.94-.14Z"/>
      <path class="cls-1" d="m12.98,38.37c-.12.31.58.57.63.28-.31,0-.2-.38-.63-.28Z"/>
      <path class="cls-1" d="m13.3,7.55c0-.24-.12-.36-.31-.42,0,.24.12.36.31.42Z"/>
      <path class="cls-1" d="m13.61,40.87c.48-.1.19.48.79.28-.14-.24-.05-.69-.31-.83.14.45-.52.19-.47.56Z"/>
      <path class="cls-1" d="m15.82,7.41c.23-.4-.7-.41-.47,0h.47Z"/>
      <path class="cls-1" d="m15.82,41.28c.27,0,.4-.11.47-.28-.27,0-.4.11-.47.28Z"/>
      <path class="cls-1" d="m17.23,5.05c-.3-.12-.82-.51-.94,0,.45-.19.8.38.94,0Z"/>
      <path class="cls-1" d="m16.92,13.38c.49.07.64-.17.79-.42-.45-.03-.86-.02-.79.42Z"/>
      <path class="cls-1" d="m19.44,5.46c-.37-.23-.38-.78-1.1-.69,0,.19-.07.3-.16.42.24.17,1.04.55,1.26.28Z"/>
      <path class="cls-1" d="m18.96,23.1c-.27,0-.4.11-.47.28.29-.13.53.42.63,0-.12-.03-.18-.12-.16-.28Z"/>
      <path class="cls-1" d="m18.81,7.41c.12.03.18.12.16.28.29-.02.53-.09.63-.28-.46.04-.58-.56-.79,0Z"/>
      <path class="cls-1" d="m19.44,14.49c.39.02.49-.21.63-.42-.41-.04-.68.05-.63.42Z"/>
      <path class="cls-1" d="m21.64,41.14c-.15.64.78.77,1.1.56,0-.5-.46-.61-1.1-.56Z"/>
      <path class="cls-1" d="m22.74,5.05c-.12-.1-.77-.35-.63.14.24-.02.58.05.63-.14Z"/>
      <path class="cls-1" d="m24,4.91c-.39-.02-.76-.03-.79.28.39.02.76.03.79-.28Z"/>
      <path class="cls-1" d="m23.53,41.98c.48,0,1.04.08.94-.42-.13-.21-.4-.3-.79-.28.13.39-.22.36-.16.69Z"/>
      <path class="cls-1" d="m25.73,4.77c-.54,0-1.1-.04-1.26.28.28.2,1.21.14,1.26-.28Z"/>
      <path class="cls-1" d="m26.83,42.12c0,.19-.07.3-.16.42.59.07.72.18.94-.28-.38.06-.34-.25-.79-.14Z"/>
      <path class="cls-1" d="m28.25,7.13c-.4-.07-.55-.18-.79.14.25.23.72.4.79-.14Z"/>
      <path class="cls-1" d="m28.56,5.19c.02-.54-.95-.49-1.1-.14.37.04.59.22,1.1.14Z"/>
      <path class="cls-1" d="m29.35,7.68c.35.06.87-.42.47-.56.03.39-1.03-.17-.79.42.12.03.31,0,.32.14Z"/>
      <path class="cls-1" d="m29.51,5.88c-.2,0-.22-.18-.47-.14v.28c.2,0,.22.18.47.14v-.28Z"/>
      <path class="cls-1" d="m29.67,45.59h.32v-.28h-.32v.28Z"/>
      <path class="cls-1" d="m31.24,43.23c-.3.06-.68.05-.63.42.49.35.56.1.94-.28-.12-.03-.31,0-.31-.14Z"/>
      <path class="cls-1" d="m31.4,41.14c.17-.35-.33-.79-.47-.42.36-.04.17.4.47.42Z"/>
      <path class="cls-1" d="m34.7,4.63c-.36.04-.6-.02-.79-.14-.15.51.77.55.79.14Z"/>
      <path class="cls-1" d="m34.54,41.28c.08.44-.37.57.16.69.05-.32.34-.6-.16-.69Z"/>
      <path class="cls-1" d="m35.33,10.6c.14-.29-.41-.62-.47-.28.25.01.12.35.47.28Z"/>
      <path class="cls-1" d="m36.28,3.38c.3-.03.35.16.63.14.07-.52-.47-.43-.63-.14Z"/>
      <path class="cls-1" d="m36.59,5.88c.16,0,.19.11.31.14,0-.14.13-.17.16-.28-.16,0-.19-.11-.32-.14,0,.14-.13.17-.16.28Z"/>
      <path class="cls-1" d="m36.75,2.83c-.06-.33.72.08.47-.42h-.63c.02.16-.03.39.16.42Z"/>
      <path class="cls-1" d="m37.69,42.95c-.25.01-.55-.02-.47.28h.31c0-.14.13-.17.16-.28Z"/>
      <path class="cls-1" d="m37.69,3.66c0,.18-.28.13-.31.28.32.16.75-.22.31-.28Z"/>
      <path class="cls-1" d="m38.32,5.19h-.47c.02.16-.03.39.16.42.01-.22.4-.11.31-.42Z"/>
      <path class="cls-1" d="m38.16,43.37h.31v-.28h-.31v.28Z"/>
      <path class="cls-1" d="m39.11,4.91c.16-.57-.93-.74-.79-.14.37-.04.6.02.79.14Z"/>
      <path class="cls-1" d="m40.84,4.49v.28c.16,0,.19.11.32.14-.02-.22.02-.48-.32-.42Z"/>
      <path class="cls-1" d="m41.16,43.09c.23.07.4.21.63.28.07-.44-.49-.8-.63-.28Z"/>
      <path class="cls-1" d="m43.04,5.6c.11-.47-.26-.51-.63-.56,0,.19-.07.3-.16.42.28.26.46-.17.79.14Z"/>
      <path class="cls-1" d="m43.99,4.63c-.32.08-1.09-.22-.94.28.22.19.95.13.94-.28Z"/>
      <path class="cls-1" d="m45.25,42.81c-.3.06-.95-.19-.79.28.29.27.53-.12.79-.28Z"/>
      <path class="cls-1" d="m45.4,4.77c-.11-.11-.88-.31-.94,0,.28-.04.79.39.94,0Z"/>
      <path class="cls-1" d="m49.97,9.21c.6.12.79-.07.47-.14-.11-.02-.92.05-.47.14Z"/>
      <path class="cls-1" d="m51.38,46.98c0-.08.02-.16.16-.14v-.28c-.39-.22-.46.47-.16.42Z"/>
      <path class="cls-1" d="m53.59,11.85c-.41.03-1.05-.44-1.26-.14.16.28,1.04.74,1.26.14Z"/>
      <path class="cls-1" d="m53.43,44.34c.34.03.5-.11.47-.42-.34-.03-.5.11-.47.42Z"/>
      <path class="cls-1" d="m56.89,8.8c-.02-.12-.87-.07-.32.14.09.04.33-.06.32-.14Z"/>
      <path class="cls-1" d="m57.99,4.49c.39.02.65-.07.79-.28-.39-.02-.76-.03-.79.28Z"/>
      <path class="cls-1" d="m61.93,8.38c-.08.16-.17.31-.32.42l-.08.21-.24.07c.4.8.83.28,1.57.56-.27-.35.16-.48-.14-.68l1.24.4c-.42-.2-.61-.68-1.15-.68-.14.06-.23.13-.34.2l.08-.21c-.31,0-.2-.38-.63-.28Z"/>
      <path class="cls-1" d="m64.29,45.87c.09.04.33-.06.31-.14-.03-.12-.87-.07-.31.14Z"/>
      <path class="cls-1" d="m65.55,45.45c-.04.2-.26.23-.31.42.1.04.61.35.63,0-.26,0-.09-.39-.31-.42Z"/>
      <path class="cls-1" d="m67.28,44.2c-.08.36-.21.49.16.69.03-.17.17-.09.31,0,.08-.16.17-.32.31-.42.23.16.38.15.47-.14-.58.1-.68-.24-1.26-.14Z"/>
      <path class="cls-1" d="m67.75,45.73c.24.04.11.3,0,.42.28-.08.65-.07.79-.28-.19-.04-.59-.56-.79-.14Z"/>
      <path class="cls-1" d="m69.33,7.68v.28h.31v-.28h-.31Z"/>
      <path class="cls-1" d="m70.11,46c.09.44-.3.43,0,.69.22,0,.35-.07.47-.14.03-.35-.24-.43-.47-.56Z"/>
      <path class="cls-1" d="m72.95,46.28c-.55.56.51.33,0,0h0Z"/>
      <path class="cls-1" d="m76.41,4.07c-.29.02-.52.09-.63.28.23.22.7.15.63-.28Z"/>
      <path class="cls-1" d="m80.5,1.85c-.23-.22-.7-.15-.63.28.36.04.59-.03.63-.28Z"/>
      <path class="cls-1" d="m83.33,3.8c-.49-.07-.64.17-.79.42.42,0,.99.13.79-.42Z"/>
      <path class="cls-1" d="m88.53,3.66c-.45-.03-.8.04-.94.28.21.18.83.03.94-.28Z"/>
      <path class="cls-1" d="m95.29,46.14c-1.01.04-1.33.06-1.57.56.6.06.9.4,1.57,0-.41-.03.22-.24,0-.56Z"/>
      <path class="cls-1" d="m94.51,1.3c-.3.06-.68-.43-.63.14.23-.02.58.05.63-.14Z"/>
      <path class="cls-1" d="m96.87,1.58c-.19-.04-.59-.56-.79-.14.35-.11.5.64.79.14Z"/>
      <path class="cls-1" d="m99.86,1.58c-.1-.04-.61-.35-.63,0,.1.04.61.35.63,0Z"/>
      <path class="cls-1" d="m99.86,2.55c.39.02.76.03.79-.28-.24-.22-.9-.2-.79.28Z"/>
      <path class="cls-1" d="m100.33,1.58h.31c.25-.34-.53-.41-.47-.14.1,0,.19.02.16.14Z"/>
      <path class="cls-1" d="m100.8,46c.19.45-.51.11-.31.56.41.18.47.3.94.14-.01-.41-.36-.52-.63-.69Z"/>
      <path class="cls-1" d="m102.22,4.49c.09.04.33-.06.31-.14-.03-.12-.87-.07-.31.14Z"/>
      <path class="cls-1" d="m103.79,2.83c-.5.12-.49-.22-.79-.28-.19.41.66.6.79.28Z"/>
      <path class="cls-1" d="m104.74,1.44c0-.19.07-.3.16-.42-.1-.08-.75-.32-.79,0,.32.04.31.38.63.42Z"/>
      <path class="cls-1" d="m105.84,49.06c.04-.2.26-.23.31-.42h-.47c.02.16-.03.39.16.42Z"/>
      <path class="cls-1" d="m107.57,1.85h-.31v.28h.31v-.28Z"/>
      <path class="cls-1" d="m107.73,2.83c.14-.29.89-.05.94-.42-.36-.07-.8-.28-1.1,0,.02.16-.03.39.16.42Z"/>
      <path class="cls-1" d="m108.04.74h-.32v.28h.32v-.28Z"/>
      <path class="cls-1" d="m109.77,46.28c-.31.15-.79,0-1.42.14.09.5-.48.41-.47.83.43.19,1.52-.45,2.05.14.42-.25.31-.91-.16-1.11Z"/>
      <path class="cls-1" d="m108.98.6c-.39-.02-.76-.03-.79.28.39.02.76.03.79-.28Z"/>
      <path class="cls-1" d="m108.83,2.13c.2,0,.22.18.47.14v-.28c-.2,0-.22-.18-.47-.14v.28Z"/>
      <path class="cls-1" d="m110.56,1.99c.14.24.05.69.31.83-.05-.32.45-.15.47-.42-.28-.12-.2-.56-.79-.42Z"/>
      <path class="cls-1" d="m111.82,4.07c-.22,0-.35-.07-.47-.14.13.44-.25.43-.31.69.46,0,.58-.32.79-.56Z"/>
      <path class="cls-1" d="m115.44.19c-.4-.16-2.26-.43-2.2.28.52.21,2.09.32,2.2-.28Z"/>
      <path class="cls-1" d="m118.11,46.98c.01.24-.04.43-.16.56.61.25,1.09.3,1.42-.28-.16-.32-.72-.29-1.26-.28Z"/>
      <path class="cls-1" d="m122.36.74c-.43.05-1.11-.4-1.42,0l.24.16-.08.25c.49.2,1.24.17,1.26-.42Z"/>
      <path class="cls-1" d="m120.95,3.24c.29-.02.53-.09.63-.28-.28.03-.79-.14-.63.28Z"/>
      <path class="cls-1" d="m123.46,46v.42c.27,0,.4-.11.47-.28-.22,0-.34-.07-.47-.14Z"/>
      <path class="cls-1" d="m127.4,47.39c-.13.41.43.9.63.56-.32-.09-.04-.7-.63-.56Z"/>
      <path class="cls-1" d="m132.59,48.23c.21.04.3.2.63.14.25-.39-.68-.38-.63-.14Z"/>
      <path class="cls-1" d="m133.54,48.36c.44.14,1.12-.04,1.26-.56-.75-.11-1.04.2-1.26.56Z"/>
      <path class="cls-1" d="m155.73,1.16l-.24-.07.08-.21c-.18-.12-.42-.18-.79-.14-.1.29-.42.62-.16.83.6.07.98-.06,1.1-.42Z"/>
      <path class="cls-1" d="m160.45,1.71c-.24-.42.05-.54-.16-.83-.61.07-.77-.25-1.42-.14-.07.26-.45.25-.31.69.9-.15,1.25.19,1.89.28Z"/>
      <path class="cls-1" d="m165.64,1.85c.13-.16.21-.37.16-.69l-.24-.07.08-.21c-.39-.02-.76-.02-.94.14l.08.25-.24.16c.36.15.56.43,1.1.42Z"/>
      <path class="cls-1" d="m167.21,32.4c0,.24.12.36.32.42,0-.24-.12-.36-.32-.42Z"/>
      <path class="cls-1" d="m171.15,1.44l-.08-.25.24-.16c-.73-.42-2.41-.11-2.83.28h.16v.14c.72.46,2.03.3,2.52,0Z"/>
      <path class="cls-1" d="m172.57,44.06c.5.02.54-.36.63-.69-.36-.04-.6.02-.79.14-.01.24.03.43.16.56Z"/>
      <path class="cls-1" d="m174.45,2.83c.48-.47-.58-.42,0,0h0Z"/>
      <path class="cls-1" d="m176.97,1.02c-.96-.21-2.28-.59-2.05.83.78-.19,2.03.03,2.05-.83Z"/>
      <path class="cls-1" d="m179.65,32.68v-.56c-.48.18-.79.5-.94.97.57.08.46-.42.94-.42Z"/>
      <path class="cls-1" d="m182.01,32.26c-.1,0-.19-.02-.16-.14-.19.02-.37.04-.31.28.19-.02.45.02.47-.14Z"/>
      <path class="cls-1" d="m184.05,1.71l-.08-.25.24-.16c-.51-.55-2.18-.57-2.36.28.72.25,1.32.33,2.2.14Z"/>
      <path class="cls-1" d="m191.61,43.64h.31v-.28h-.31v.28Z"/>
      <path class="cls-1" d="m193.5,43.37c.21-.02.47.56.63.14-.21.02-.47-.56-.63-.14Z"/>
      <path class="cls-1" d="m204.2,1.16c0,.18-.2.19-.16.42.46-.04.48.31.94.28.04-.49-.23-.73-.79-.69Z"/>
      <path class="cls-1" d="m210.81,3.66c-.01.22-.4.11-.31.42.32.12.71-.36.31-.42Z"/>
      <path class="cls-1" d="m212.85,1.71c-.08-.45-1.28-.59-1.26,0,.6-.12,1,.23,1.26,0Z"/>
      <path class="cls-1" d="m220.09,9.21h.31c.18-.2.17-.34-.16-.42,0,.19-.07.3-.16.42Z"/>
      <path class="cls-1" d="m221.67,1.85c.23-.75-.96-.67-.79,0h.79Z"/>
      <path class="cls-1" d="m223.08,4.63c-.36.1-1.23-.25-1.1.28.37.31.75-.15,1.1-.28Z"/>
      <path class="cls-1" d="m222.77,4.07c.21.04.62-.09.31-.14-.21-.04-.61.09-.31.14Z"/>
      <path class="cls-1" d="m222.93,9.07c.01-.22.4-.11.31-.42h-.47c.02.16-.03.39.16.42Z"/>
      <path class="cls-1" d="m223.4,46.84c.54-.11.75.08.63.56h.79c-.18-.44-.07-.37.16-.69-.4-.44-1.35-.55-1.57.14Z"/>
      <path class="cls-1" d="m226.23,46.7c.43-.1-.11.65.31.56.17-.26.2-.66.31-.97-.39-.02-.38.31-.63.42Z"/>
      <path class="cls-1" d="m227.96,47.12c.37.06.42.61.79.28-.05-.35-.7-.77-.79-.28Z"/>
      <path class="cls-1" d="m229.54,8.24c-.09-.44.3-.43,0-.69-.39.12-.91.12-.94.56.39-.02.76-.02.94.14Z"/>
      <path class="cls-1" d="m228.75,9.07c.53.42.48-.51,0,0h0Z"/>
      <path class="cls-1" d="m229.06,46.98c.36.04.59-.03.63-.28-.28.03-.79-.14-.63.28Z"/>
      <path class="cls-1" d="m230.48,6.57c.4-.01.75-.08.94-.28-.35-.08-.87-.2-.94.28Z"/>
      <path class="cls-1" d="m232.84,5.32l-.08.14-.08.14c1.41.01,2.64.15,3.93.56.16-.18.15-.51.31-.69-.45-.02-1.08.12-1.1-.28.79.05,1.61.06,2.2.28-.5.06-.77.2-.31.42-.34-.03-.5.11-.47.42h.47l.18-.21.29.07c.47,0,.54-.36.94-.42.11-.38-.31-.28-.31-.56l-.24-.16.08-.25c-1.5-.5-3.23-.06-4.56-.56-.32.46-1.07.54-1.26,1.11Z"/>
      <path class="cls-1" d="m231.9,2.55h-.63v.28h.63v-.28Z"/>
      <path class="cls-1" d="m232.68,4.77h-.63c-.11.55.66.45.63,0Z"/>
      <path class="cls-1" d="m233.16,46.56c-.07.31.47.77.63.42-.21-.14-.31-.38-.63-.42Z"/>
      <path class="cls-1" d="m236.62,7.82c.17-.61-.53-.46-.47-.97-.66.07-.88.52-1.42.69l.08.21-.24-.07c-.83.51.64.33.16.83.88-.01,1.27-.45,1.89-.69Z"/>
      <path class="cls-1" d="m234.57,46.14c.21.04.3.2.63.14.25-.39-.68-.38-.63-.14Z"/>
      <path class="cls-1" d="m235.67,18.1c.19.02.36.25.47,0-.19-.02-.36-.25-.47,0Z"/>
      <path class="cls-1" d="m236.15,46c.04-.36.27.19.63,0,.28-.56-1.34-.23-.63,0Z"/>
      <path class="cls-1" d="m235.99,6.71c.4.07.55.18.79-.14-.11-.11-.94-.36-.79.14Z"/>
      <path class="cls-1" d="m237.41,46.14c-.24-.49.53-.08.47-.42-.18-.12-.42-.18-.79-.14-.04.32.04.52.32.56Z"/>
      <path class="cls-1" d="m238.19,7.55c.27.02.72.29,1.1,0-.34-.2-.85-.43-1.1,0Z"/>
      <path class="cls-1" d="m242.33,6.1l-.6.47c.28-.02.57.03.84,0,.02-.19-.07-.44-.05-.63l.08.21c.38-.31,1.12-.3,1.89-.28l-.08-.25.24-.16c-1.43-.21-3.28-.42-4.41.14.51.62,1.41.14,2.09.5Z"/>
      <path class="cls-1" d="m250.94,5.74l-.24-.16.08-.25c-.74-.04-1.08-.44-1.89-.42-.16.93-1.66-.17-2.05.56l.24.16-.08.25c1.71-.15,2.87.63,3.93-.14Z"/>
      <path class="cls-1" d="m241.18,4.91c-.25-.24-.81-.13-.94.14.17.16.73.05.94-.14Z"/>
      <path class="cls-1" d="m241.34,19.07c.23-.08.81.16.79-.14-.27.04-.85-.44-.79.14Z"/>
      <path class="cls-1" d="m242.6,1.99c.4-.02.55-.25.79-.42-.4.02-.81.03-.79.42Z"/>
      <path class="cls-1" d="m244.17,7.82c.23-.08.81.16.79-.14-.3-.06-.4-.3-.79-.28v.42Z"/>
      <path class="cls-1" d="m246.85,6.71c.23.21.82.14.79-.28-.39-.02-.76-.03-.79.28Z"/>
      <path class="cls-1" d="m249.05,6.85c-.16.28-.7.22-.63.69.49,0,1.03.33,1.42,0l-.08-.14.08-.14c-.37-.04-.29-.48-.79-.42Z"/>
      <path class="cls-1" d="m251.73,1.58c-.39-.02-.76-.03-.79.28.39.02.76.03.79-.28Z"/>
      <path class="cls-1" d="m253.14,46.56c.53.42.48-.51,0,0h0Z"/>
      <path class="cls-1" d="m254.72,5.88l-.08-.21.08-.21c-.34-.35-1.08-.31-1.26.14.33.17.81.64,1.26.28Z"/>
      <path class="cls-1" d="m254.56,8.8c.27.3.72.26,1.1,0-.4-.04-.89-.6-1.1,0Z"/>
      <path class="cls-1" d="m255.98,35.45c.28.01,1.15.57,1.1,0-.02-.23-1.08-.23-1.1,0Z"/>
      <path class="cls-1" d="m256.61,8.93c.36.04.59-.03.63-.28-.36-.04-.59.03-.63.28Z"/>
      <path class="cls-1" d="m258.02,5.74v.14c.49-.31,1.73.05,2.05-.42l-.24-.07-.08-.21c-.43-.56-1.57-.45-2.04,0-.01.24.03.43.16.56h.16Z"/>
      <path class="cls-1" d="m259.44,1.85c.29-.02.52-.09.63-.28-.36-.04-.59.03-.63.28Z"/>
      <path class="cls-1" d="m261.33,34.2c.23-.08.81.16.79-.14-.2-.19-.77-.21-.79.14Z"/>
      <path class="cls-1" d="m262.59,8.8c-.25-.24-.81-.13-.94.14.28-.08.92.17.94-.14Z"/>
      <path class="cls-1" d="m262.43,7.27c-.39-.02-.65.07-.79.28.39.02.76.03.79-.28Z"/>
      <path class="cls-1" d="m262.11,5.46c-.19-.02-.36-.25-.47,0,.19.02.36.25.47,0Z"/>
      <path class="cls-1" d="m264,12.82c.37,0,.46.24.94.14.22-.44-.94-.35-.94-.14Z"/>
      <path class="cls-1" d="m264.95,32.4h.31v-.28h-.31v.28Z"/>
      <path class="cls-1" d="m266.05,33.23c.91.15.07-.6,0,0h0Z"/>
      <path class="cls-1" d="m268.09,8.93c-.1,0-.19-.02-.16-.14-.19.02-.37.04-.31.28.19-.02.45.02.47-.14Z"/>
      <path class="cls-1" d="m268.25,7.27c.12.38-.31.28-.31.56.39.02.65-.07.79-.28-.23-.03-.27-.23-.47-.28Z"/>
      <path class="cls-1" d="m273.45,31.57c-.62.7-2.06-.09-2.83.56.49.17.77.17.31.56.87-.26.91.95,1.42.56-.63-.57,1.01-.3,1.26-.56l-.08-.21.24-.07c-.27-.13-.4-.38-.31-.83Z"/>
      <path class="cls-1" d="m271.08,5.74h.31c.24-.34-.53-.41-.47-.14.1,0,.19.02.16.14Z"/>
      <path class="cls-1" d="m272.66,4.21h-.31v.28h.31v-.28Z"/>
      <path class="cls-1" d="m273.45,11.57c-.52.14-.93.38-.94.97.28-.13.79-.05.94-.28-.18-.15.35-.35,0-.69Z"/>
      <path class="cls-1" d="m275.18,4.49c-.4.15-.75-.42-.94,0,.11.11.88.31.94,0Z"/>
      <path class="cls-1" d="m274.7,8.93c.53.03.99.3,1.26-.14-.41-.14-1.05-.24-1.26.14Z"/>
      <path class="cls-1" d="m278.17,5.88c.21.04.61-.09.31-.14-.21-.04-.61.09-.31.14Z"/>
      <path class="cls-1" d="m278.64,11.16c.24.22.64.1.79-.14-.19-.18-.59-.06-.79.14Z"/>
      <path class="cls-1" d="m279.43,5.88c.6.12.79-.07.47-.14-.11-.02-.92.05-.47.14Z"/>
      <path class="cls-1" d="m280.53,18.79c.21.04.61-.09.31-.14-.21-.04-.61.09-.31.14Z"/>
      <path class="cls-1" d="m282.1,5.74c-.23.08-.81-.16-.79.14.24.22.64.1.79-.14Z"/>
      <path class="cls-1" d="m282.1,13.79h.31v-.28h-.31v.28Z"/>
      <path class="cls-1" d="m282.26,40.87c.47-.1,1.11-.04,1.26-.42-.53-.24-1.14-.08-1.26.42Z"/>
      <path class="cls-1" d="m284.46,11.02c-.5.12-.6-.12-.79-.28-.01.24.04.43.16.56.36.04.59-.03.63-.28Z"/>
      <path class="cls-1" d="m284.3,31.7c.19-.02.45.02.47-.14-.1,0-.19-.02-.16-.14-.19.02-.37.04-.31.28Z"/>
      <path class="cls-1" d="m287.14,5.05c-.68-.01-1.04-.29-1.26.28.55.02,1.01-.04,1.26-.28Z"/>
      <path class="cls-1" d="m287.14,22.68c.43.01.32-.23.63,0,.03-.62-.53-.34-.63,0Z"/>
      <path class="cls-1" d="m287.45,20.18c.3.12.82.51.94,0-.4.15-.75-.42-.94,0Z"/>
      <path class="cls-1" d="m288.71,5.19v.42c.42-.09.8-.22,1.1-.42-.36-.07-.8-.28-1.1,0Z"/>
      <path class="cls-1" d="m291.39,14.49c-.31,0-.2-.38-.63-.28-.17.35.53.62.63.28Z"/>
      <path class="cls-1" d="m295.64,8.38c.29-.02.53-.09.63-.28-.36-.04-.59.03-.63.28Z"/>
      <path class="cls-1" d="m298.15,16.71c-.27.13-.85,0-.79.42.42,0,.99.13.79-.42Z"/>
      <path class="cls-1" d="m299.57,38.65c.23-.08.81.16.79-.14-.2-.19-.77-.21-.79.14Z"/>
      <path class="cls-1" d="m300.04,20.87c.18.12.42.18.79.14.23-.44-.91-.67-.79-.14Z"/>
      <path class="cls-1" d="m301.14,29.07c.23-.08.81.16.79-.14-.11-.11-.94-.36-.79.14Z"/>
      <path class="cls-1" d="m302.4,20.87c.24-.02.58.05.63-.14-.21-.18-.59-.18-.63.14Z"/>
      <path class="cls-1" d="m305.87,14.63c.95.11.1-.64,0,0h0Z"/>
      <path class="cls-1" d="m312.95,20.74c.21.04.61-.09.31-.14-.21-.04-.61.09-.31.14Z"/>
      <path class="cls-1" d="m316.72,23.51c.26,0,.09.39.31.42.33-.11-.11-.83-.31-.42Z"/>
      <path class="cls-1" d="m317.2,24.21c.23-.02.58.05.63-.14-.3.06-.68-.43-.63.14Z"/>
      <path class="cls-1" d="m317.83,23.93c.19.02.36.25.47,0-.19-.02-.36-.25-.47,0Z"/>
      <path class="cls-1" d="m320.19,23.23c.39.13,1.08.27,1.1-.28-.36.1-1.23-.25-1.1.28Z"/>
      <path class="cls-1" d="m321.6,23.79c.3-.06.95.19.79-.28-.39-.02-.65.07-.79.28Z"/>
      <path class="cls-1" d="m323.02,25.04c.95.11.1-.64,0,0h0Z"/>
      <path class="cls-1" d="m324.59,23.65c.54,0,1.1.04,1.26-.28-.33-.12-.47-.42-.94-.42.12.43-.43.27-.31.69Z"/>
      <path class="cls-1" d="m328.84,23.37c.03-.16.25-.15.47-.14.13-.79-.98-.1-.47.14Z"/>
      <path class="cls-1" d="m331.36,22.82c-.11-.02-.92.05-.47.14.6.12.79-.07.47-.14Z"/>
      <path class="cls-1" d="m280.21,24.48c2.28-.39,4.62.11,6.61-.56-.18-.02-.17-.22-.16-.42l-.24-.07.08-.21c-.35-.18-1.11,0-1.1-.5l.86-.05c-.36-.11-.79-.18-1.1.07l.08-.21c-1.23-.02-2.95.11-4.56.14,0-.19-.07-.31-.16-.42l-.16.07-.16-.07c-.12.03-.31,0-.32.14-.36.08-.57-.96,0-.83l-.08-.25.24-.16c-.03-.11-.13-.16-.31-.14.92-.56-.14-.95-.47-1.53.6-.31.54-1.19,1.1-1.53,1.25.53,3.21.6,4.41,0,.53.41.76.23,1.26.14-.19.03.7-.01.79-.42,2.24.04,4.81.09,6.77-.56l-.08-.14.08-.14c-1.45-.38-4.39-.47-5.82,0-2.09-.33-4.69.04-7.24.14-.07-.26-.45-.25-.31-.69-1.1.33-2.73.16-2.99-.69.53.01.83.28,1.1-.14-.77-.03-.29-.39,0-.56-.62.04-.96-.17-1.26-.42.19-.02.45.02.47-.14l-.24-.07-.08-.21c-.45-.32-1.01-.13-1.57-.56-.26.28-.94.19-1.1.56-.15-.37-.77-.34-.94-.69-.04.24-.27.32-.63.28l-.24.07.08-.21c-.55-.34-1.42-.27-1.89.14l-.08.14-.08.14c.47.09-.15.3,0,.56-.11-.35-.6-.37-.91-.54l.98-.16c-.36-.07-.73-.09-1.09-.06-.08.05-.15.16-.22.27l-.18-.21c-.44.16-1.3-.03-2.05.42-1.15-.72-1.91-.06-3.62-.56-.49.73-1.85.68-2.99.83-.25-.2-.55-.35-.63-.69-1.52.79-3.31.62-4.56-.28-.95.35-2.79.14-3.62-.42.91-.06,1.61.06,2.36.14l-.08-.25.24-.16c-.43-.38.23-.13.32-.42-.32-.21-1.81.11-2.05-.56,2.08-.34,3.37.3,4.72,0,.12.5.99.33,1.26.69l-.08.07-.08.07c.1,0,.19.02.16.14l.29-.07.18.21c1.32.61,2.72-.47,4.25,0,.08-.89.11-.99-.16-1.67,1.88.16,3.72.19,5.82.42,0,.18-.28.13-.31.28.46-.14,1.28.01,1.89.14l-.06-.25.21-.17v-.14l-.24-.07.24-.07c0-.18-.2-.19-.16-.42.27,0,.4.11.47.28l.08-.07.08.07c1.82-.19,3.77.1,5.51.14.29-.26.58-.51,1.26-.42l-.08-.21.24.07c.31-.43,1.81.21,1.89-.42-.72-.05-.9-.4-.47-.83-.75-.05-1.45-.35-2.2-.42-2.04-.18-4.06.64-5.98.42-.43-.05-.74-.25-1.1-.28-.71-.05-1.4.2-2.05.14-.2-.02-.29-.3-.47-.28-.14.02-.49.35-.79.42-1.08.25-1.71,0-2.52-.14l.06.25-.21.17c.02.25-.16.32-.47.28v-.28l-.24-.16.08-.25c-1.27-.22-2.5.03-3.46,0-1.98-.05-4.6.88-6.61-.42l-.24-.07.08-.21h-.31l.08.25-.24.16c-.08.49-.72.39-1.1.28,0-.14.13-.17.16-.28l-.24-.16.08-.25c-1.47-.14-4.24.15-5.35-.14l.08.21c-.33-.19-1.04,0-.79.42l-.24-.07c-.39.26-.83.47-1.42.56.02.35.3.43-.16.56-.43-.26-.64-.73-1.09-.97l.98-.37c-.49,0-1.14-.18-1.15.44l-.16.07c-.5-.12-.49.21-.63.42.04.21.87.42.47.56-.78-.24-1.56-.47-1.89-1.11-.17.23-1.4.23-1.57,0,.13-.21.51-.2.79-.28l.08-.21.24-.07c-.19-.25-.82-.11-1.1-.28l-.18.21-.29-.07v.28c-.5.29-1.2.59-.63,1.11-.28-.18-1.49.27-1.57-.42.28.12.49.46.63,0-.49-.18-1.15-.92-1.89-.42.27,0,.4.11.47.28-.64.14-1.84.5-2.36.28l-.29.07-.18-.21c-.89-.14-.94.46-1.89.28l.08.25-.24.16c.89.49,2.03-.09,2.99.28l.24-.07s.08.21.71.21c-.03.21-.38.13-.63,0l-.16.07-.16-.07c-1.22.04-2.67-.14-3.46.28-1.05-.64-3.69-.23-4.56-.28-.25-.04-.11-.3,0-.42l-.24-.16.08-.25c-3.97-.51-8.7-.48-12.43.14v-.14l-.16.07-.16-.07c-.37-.18-.29.02-.79-.14.04-.24.27-.32.63-.28.04.11,0,.27.16.28l.18-.21.29.07c.11-.72,1.23,0,1.26-.56l-.24-.16.08-.25h-.47c0-.19.07-.31.16-.42l.08-.14.08-.14c-.16,0-.19-.11-.32-.14.04-.2.35-.16.47-.28l-.08-.21.08-.21c.49-.59,1.33-.86,2.36-.97.24.25.44.53,1.1.42.08-.44-.48-.31-.31-.83l-.08-.14.08-.14c-1.09-.38-2.99-.04-3.3-1.11l-.24.07-.24-.07c-.18.29.07.52-.47.69-2.21-.44-3.23-.22-5.51,0-.34-.88-1.15-1.35-2.36-.83.49.58-.71.16,0,.83-.69-.19-1.3.42-1.73,0-.36-.39.55-.55.31-1.25-.71-.07-.54.64-1.26.56-.83-.68-1.95-.17-2.52-.14-1.76.09-3.63-.76-5.19-.28-.78-.34-2.88-.65-3.62-.14.25.14.36.37.16.56-1.36-.04-3.39.06-4.25,0,.1-.19.61-.02.63-.28l-.08-.21.08-.21c-1.26-.45-2-.07-3.31-.14-.26-.01-.4-.23-.63-.28-1.13-.25-1.73.66-2.68.69-.75.03-1.38-.59-2.36-.69-2.03-.22-3.15-.4-4.88.42.04-.32-.04-.52-.31-.56-.14.39-.63.46-1.1.56-.01-.38.26-.28,0-.56-2.87-.48-6.88.52-8.97-.83-.48.24.43.43,0,.56-.14-.45-1.26.14-1.26-.69-.62-.04-.48.59-1.1.56-.56-.32-1.63-.1-2.05.14-.14-.25-.38-.41-.47-.69-1.53.07-2.47,1-3.62,0-.5.03-.2.75-.79.69.39-.34-.12-.6,0-1.11-.73.63-1.68.34-2.52,0-.36.22-1.08.61-.63,1.11-.72.35-2.45.43-3.15,0,.65.07.97-.16,1.1-.56-.88-.06-1.5-.35-2.2-.56-.26.33-.92.3-1.26.56.07-.57-.42.13-.47-.42.62.04,1.09-.05,1.26-.42l-.24-.16.08-.25c-.02-.27-.53.16-.94,0,.01-.24-.04-.43-.16-.56-.72.34-.92,1.13-1.73,1.39.28.48-.28,1.05-.16,1.39-1.01.11-1.21-.5-1.73-.83-.08-.44.28-.49.16-.97-1.27-.71-2.74-.08-4.41,0l.24.07-.08.21c.97,1.06-3.06,1.16-3.62.42l-.08.21-.24-.07c-.87-.07-2.06.15-2.68-.14l-.24.07.08-.21c-.15-.15-.58-.04-.47-.42.27,0,.4.11.47.28l.16-.07.16.07c.45-.39,1.46-.28,1.73-.83-.63-.32-1.94-.05-2.83-.14.05.51-.57.42-.94.56l.08.25-.24.16c.07.44-.4.39-.63.56l.08.25-.24.16c.07.31.78.06,1.1.14-.54.72-1.44-.22-2.05.14v-.14l-.08-.21.08-.21c-.16,0-.19-.11-.31-.14l-.24.07-.08-.21c-.93.46-1.18-.1-2.36,0l-.08.21-.24.07c.19.3.68.32.94.56-.85.26-.4.29-.16.83-1.06.38-2.03-.03-3.15.28.39.02.03.46-.16.42-1.44.3-1.96-.32-3.15-.56-.22.18-.07.68-.47.69-.72.33-1.95.67-2.36-.14.04-.17.25-.28-.16-.28-.45-.02-.37.42-.79.42-.45-.47.06-.4-.16-.83-1.72-.22-1.44,1.32-2.83,1.39-.41-.14-.53-.55-.94-.69v.14h-.16c-.5.33.37,1.01-.31,1.11-.37-.04-.29-.48-.79-.42l-.24.07-.24-.07c0,.14-.13.17-.16.28-1.04.03-1.49-.3-2.52-.56-.28.27-.56.53-.79.83-.97-.02-1.47-1.2-2.67-.56.21.31-1.57.38-2.2,0l-.24.07-.24.07c-.48-.15-1.13.03-1.73-.28.27,0,.4-.11.47-.28-.65-.38-1.12.46-1.89.56-1.12.15-2.34-.3-3.3-.56-2.11.46-4.89-.08-7.87.28.22-.44-.94-.35-.94-.14.16,0,.2.24,0,.28-1.57-.13-2.7-.08-3.3-.56-.42.53-2.67.49-4.09.42-.7-.04-1.66-.09-1.57-.42-.87.52-1.84.13-2.68.14-.45,0-.94.26-1.42.28-.89.03-1.89-.28-2.83-.28-.94,0-1.95.51-2.68-.14l-.16.07-.16.07c-.25.02-.81.47-.94.14l-.08.07-.08.07c-1.37.06-3.44-.2-5.04.14-.67.14-2.36.55-2.2.14-.19.4-1.44.67-1.73.14-.12.63-1.22.4-1.42.97-.06-.53-.42-.21-.16.14-.54.2-.74-.15-1.1.14.67.32-1.36.52-1.42,1.11,1.74.18,5.58-.14,7.4-.28-.09,0-.18-.12,0-.14,2.74-.3,5.44.13,7.87-.14.02-.16-.03-.39.16-.42.4.48.53.48.63,0,1.32.23,3.59-.23,5.19.14.12.03.18.12.16.28.8-.59,1.1.13,1.89.28.23-.08.24-.09.47-.42.75.02-.02.51.63.56l.08-.21.24.07c.57.05.76.21,1.26,0-.15.54-.79.12-1.26.14l.08.21-.24-.07c-1.63-.16-2.7.57-3.93,0-1.33.58-3.9-.03-5.04.56l.08.25-.24.16c.39.55,1.09.02,1.73,0,1.17-.04,2.65-.08,3.62,0,.11,0,.17.28.47.28.62,0,1.13-.5,1.57,0l.24.07c-.33,0-.74.04-.87.35l.64-.26c.07.16.2.26.46.26-.26.25-.76.34-.94,0h-.16v-.14c-.36.43-.29.03-.79,0-.73-.05-1.75.56-2.2,0-.16.43-.77.18-1.42.42-.02-.26-.1-.46-.31-.56.12.48-.15.61-.47.69-.59-.52-1.91.15-2.68-.42-.39.12-.62.38-1.1.42-.35-.2.2-.34-.16-.42-.16.18-.15.52-.47.56-.6-.66-2.27-.01-2.52-.69l-.08.21-.24.07c-.42.41.42.55.47.97.06-.17.2-.28.47-.28-.52.48.79.12.63.69.34-.08,1.29-.33,1.57,0-1.58.29-2.15.43-3.78.56l-.08.21-.08.21c.1,0,.19.02.16.14-1.83.43-4.21.17-5.98.14-1.02.99-2.32.57-4.09.42-2.14-.19-4.61.09-6.77,0,.06.74.09.24.47.69-.06.64-.26.86.31,1.11-.5.02-.95,0-1.1-.28l-.24.07.08-.21c-.53-.36-.39-.56-.16-1.11-1.18-.73-2.06-.03-3.62-.42-.32.28.07.27.16.56l.24.07-.24.07c.17.13.05.51.47.42.48-.94,1.73.21,2.2.56-.73-.04-1.36,0-1.73.28-.58-.38.08-.52-.16-.83-.69.3-2.62.5-3.49,0,.04.02.1.02.19,0,0-.24-.12-.36-.32-.42.01.16,0,.34.12.41-.26-.16-.43-.38-.44-.68-1.5-1.43-2.79,1.94-4.09-.28-1.3-.32-2.3-.15-3.3.42-1.29-.12-1.74-.9-2.68-.14.05.46.64.45.63.97-.75-.2-1.49.46-1.73-.14.45.03.86.02.79-.42-.67-.06-1.03-.39-1.42-.69-.73,0-1.34.34-1.57.42-.24.08-.42-.41-.47-.42-.64-.06-1.14-.25-1.57.28.41.2,1.07.17.94.83l.29-.07s.18.21.34.07c.28.03.36.24-.16.14l-.29.07-.18-.21c-.76-.31-1.15.07-1.57.28.52.14.92,1.25,1.42.56-.09.2.18.72-.16.69-.4-.19-2.28.32-2.67-.28.02-.62-.35-.9-.63-1.25-.82.1-2.62.08-3.31-.69.04.81-.88.16-1.57.28-.3.05-.54.3-.79.28-.28-.02-2.03-.64-2.05-.83l-.24.07c.12-.09.17-.19.22-.28-.1-.09-.2-.14-.3-.21l.04.24c-2.18-.66-3.04-.43-5.86-.38-.97.95.14,3.73-1.73,3.89-.16,1.09.45.42.16,1.25.58-.04.99.51,1.26,1.11-.67.14-1.2,1.17-1.26,1.67-.2,1.69,1.53,2.22,1.57,3.61-.32.22-.36.7-.31,1.25.23.26.81.21.79.69-.17.54-1.1,1-1.57.83.15.52.14,1.17.63,1.39h-.47c.1.42.35.71.94.69.32-.04.15-.52.47-.56.41.49-.46.83-.79,1.11.22.64-.03,1.24-.63,1.53.65.11-.36,1.32.16,1.8-.31.42-.69.78-.94,1.25.22.04.18.3.31.42-.36-.04-.59.03-.63.28h.16v.14c.17.41.75.45,1.42.42.88,1.22,2.52,1.75,4.88,1.67.23.16.44.35.63.56.1-.19.34-.26.63-.28.31.1-.04.77.31.83.16-.39.23-.35.31-.56.58.21,1.67.04,1.26.42.31.04.31-.19.47-.28.52.24,1.54.76,1.89.69-.17-.03-.38-.23-.16-.28,1.38-.24.46,1,.94.69.14-.2.24-.44.63-.42,1.16.38,1.25.24,1.89.83-.05-.37.22-.46.63-.42.38.62,1.61-.33,2.05.56.52-.41,1.31.13,1.57.42.02-.4.66-.25,1.1-.28.02.16-.03.39.16.42.41-.46,1.06.03,1.26-.14.34-.33,1.55-.13,2.2.28.15.1.5.87.94.83-.09-.82,1.36-.79,1.73-.42h.31c.87-.34,2.14.15,2.68.56,1.7-.63,3.52-.33,5.11.25l-.34.38c-.22-.12-.4-.27-.52-.49,0,.23-.44.08-.47.28l.08.21-.24.07c0,.18.28.13.31.28l.39-.07.39.07c.1,0,.19-.02.16-.14l-.24-.07c.17-.02.38-.01.58-.14.06-.2.05-.41.05-.55l.08.21c.27-.01.49.03.63.14h.16c-.03.09-.07.19-.04.31.15.09.36.25.4.35.1.02.28.03.5-.04l-.08.21c.64-.16.82.08,1.1-.28l-.08-.21.24.07c.14-.34.89-.06.94.14-.39-.22-.46.47-.16.42.1-.42.34.13.63,0-.34-.55.3-.6.79-.42l.24-.07c-.17.22-.2.45-.16.56l.1-.34c.7.28,2.54-.54,2.5.41.49.07.42-.37.79-.42,1.53.58,4.84.58,7.24.97.65-.34,1.13-.7,2.05-.28.15.26-.47.46,0,.56.16-.55.89.04,1.26.14.21-.14.58-.14.79-.28.74.85,1.99-.36,2.36.69.06-1,1.51.06,1.57-.14-.16,0-.2-.24,0-.28.69-.19.34.54.94.42l-.08-.21.24-.07c.28-.22.84-.19,1.26-.28v.14l.08-.07.08-.07c1.24-.15.48.48.94.56.72-.25,3.21-.08,4.25.28l.24-.07.24.07h.79c.05.37-.61.11-.47.56.42.23.88.43,1.42.56.09-.45.33-.26.47-.42-.27-.13-.43-.51,0-.56l.24-.07.08.21c.54-.53,1.77,0,2.2.42l.24.16-.08.25c.8-.1.93.47,1.57.14.4-.34-.33-.3-.16-.83,1.01-.11,1.54.21,1.89.69.48.1.3-.38.79-.28.02.35.23.54.63.56.27-1.1,1.23.06,2.2-.42,1.24.93,3.27.96,4.56,1.53-.14-.48.51-.24.63-.14-.05-.32-.19-.57-.31-.83.62.51.62-.38,1.26-.28l.18-.21.29.07c.39-.27,1.17-.43,1.26.14.07-.54.89-.32,1.1-.14.08.07-.33.36.16.28.49.04-.4-.4.16-.42.54-.1.26.51.63.56.54-.91,3.71-.14,4.72-.28v.42c.73.12-.11-.46.32-.42.57-.13.13.62.63.56.94-1.02,2.32.38,2.83-.83l-.24-.07.08-.21c0-.18.2-.19.16-.42.18.02.17.22.16.42l.08.14-.08.14c1.84.66,2.64.51,4.25.56-.12-.03-.18-.12-.16-.28.94-.22,1.55-1.05,2.52-.83.95,1.97,2.57.77,4.25,1.67.04-.11,0-.27.16-.28l-.08-.21.24.07c.22-.23-.25-.8.63-.69.11.42-.16.51-.16.83.4.32.77.14,1.1.28,0-.37-.09-.82.31-.83.36.15.57.42.63.83,1.35.04,2.52.28,3.46-.28-.35-.06-.15-.76.16-.69.04.2.26.23.31.42l.24-.07.24-.07c.27-.05.4.21.47,0-.51-.55.85-.64,1.57-.56-.01.24.04.43.16.56l.29-.07.18.21h.63c.11.38-.31.28-.31.56.74.29,1.37.26,1.89-.28-.39.02-.65-.07-.79-.28.45-.38.84.08,1.26.14-.06-.58.57-.15.63,0,.23-.26.35-.62.94-.56.23.08.38.22.47.42-.04.37-.66.53-.31.83.79.19.61-.48,1.1-.56.9-.33,1.92-.36,3.15,0l.08-.07.08-.07c.6.18.85-.2.94.42.53.22.67-.59.94-.14-.33.08-.45.34-.94.28.02.48.46,1.05.79.83l.24-.07c-.18.22-.03.47-.08.62l.05-.42c.65-.01.89-.38,1.05-.83.38.06.34-.25.79-.14.13.38.37.84.94,1.11-.07-.03.45-.25.63-.14.09.06-.29.29,0,.28.33-.26.18-.72.31-.83.14.41.13-.42.63-.14v.14l.16-.07.16-.07h.31v.25l-.47-.19s0,.08.01.12c.04.3.47.25.69.16l-.08.21c1.02-.24,2.72-.32,2.05.69.56-.06.91-.31,1.57-.28l.24-.07c-.25.19-.11.48,0,.69v-.5c.88-.1.6-.53,1.18-.82,1.06-.2,1.4.45,1.89,0,.53.37,1.09.71,1.57,1.11.66-.16,1.04-1.3,2.05-.69,0,.28-.43.18-.31.56,1.11-.58,1.62-.26,2.68-.56.13.16.21.37.16.69.92.12,2.41-.28,2.83.28.76-.44,1.98-.47,2.99-.69-.01.24.04.43.16.56,1.12.16,1.36-.46,2.05-.69.34.21.25.8.79.83.23-.22.4-.48.79-.56,1.13.19,2.42.65,3.3.28.27.09.26.42.47.56.2-.38.67-.52,1.1-.69.26.46,1.22.31,1.57.69-.16.32-.32.64-.63.83.3.06.29.4.79.28.3-.43.82-.66,1.42-.83.23.41-.13.47.16.83.64-.04,1.23-.12,1.42-.56-.2-.28-.88-.15-.94-.56-.06-1.1.6-.76,1.1-1.25,0-.37-.09-.82.31-.83.78.33.1,1.17.79,1.67.68-.36,1.7-.58,2.2.14.04-.24.27-.32.63-.28,0,.28.43.18.31.56.14.55-.97.38-.47.83.15.34.6-.19,1.1,0,.09-.25.08-.58.31-.69.43,1.4,2,.42,3.46.83.32-.51.71-.95,1.57-.97.66.73,2.7,1.2,3.94.56.31,0,.2.38.63.28.56-.34.93-.84,1.57-1.11.24.16.39.4.79.42.06-.54.87-.51,1.26-.42.83.2.19.4.79.14.94-.42,2.02.81,2.52-.14-1.35-1.05.05-2.27,1.57-2.64.66.23.35.78.79.97.02-.49.52.3.47-.14-.39-.02-.03-.46.16-.42.17.69.54-.55,1.1-.42,1.48.09,2.09.02,2.83.42l.24-.07.24.07c.52-.85,1.75-.3,2.68-.56.28.24-.05.55-.47.56.67.42,1.82.18,3.15.28-.33,1.02-2.46.7-3.62.83-.33.04-.64.34-.94.28-.96-.21-.66-.73-.94-1.25l-.24.07-.24-.07c-.5-.28-.12.37-.16.83-1.11.43-2.21.06-3.46.42-.03-.11-.13-.16-.31-.14l-.08.21-.24-.07c.06.52-.64.36-.47.97.79.2,2.06-.2,2.68.42.49-1.13,1.25-.36,2.52-.69.58.61,2.12.77,2.83.14,1.2-.02,2.25.58,3.46.42,1.1-.14,3.12-.37,3.93-.42,1.96-.11,4.03.31,5.35-.42l.08-.14.08-.14c-.21,0-.14-.24-.31-.28.04-.2.26-.23.31-.42.28.13.55.26.47.69l.08.21-.24.07c1.44.5,2.39-.2,3.46-.28.22-.02.27.26.47.28-.05,0,.09-.27.16-.28.24-.04.74.34.94.14.19-.45-.51-.11-.31-.56.59.04,1.25-.58,1.73,0-.27,0-.4.11-.47.28.57-.08,1.65.72,1.26-.14.4.44,2.36.37,2.36,0-.26-.23-.64-.36-.63-.83-.92.4-1.63-.22-2.36-.42-.57.19-1.47.52-1.73,0,1.26-.12,3.41-.62,4.56-.69.59-.04,1.17.07,1.73,0,.55-.07,1.06-.37,1.57-.42.22-.02.27.26.47.28.66.06,1.57-.4,2.2-.42.39,0,.73.18,1.1.14.49-.05,1.01-.35,1.57-.42.71-.08,1.49.1,2.2,0,.23-.03.52-.27.79-.28,0,0,.44.28.47.28,1.12.02,2.14-.23,2.68-.28.68-.06.86-.35,1.42-.28.2.06.32.18.31.42,1.16-.2,3.52.26,4.41-.83.37.04.29.48.79.42,1.47,0,3.05.1,3.94-.42.66.09.89-.28,1.1.14.67-.63,1.74-.32,2.36-.42l-.08-.21.24-.07c1.45-.76,3.89-1.05,5.67-.56.12-.59,1.16-.37,1.89-.42.15-.14.31-.28.47-.42,2.4-.06,5.07-.97,6.77-.42l.24-.07-.08.21c1.78.15,3.61-1.72,4.72-.42.58-.2.94.02,1.26-.42-.03.3.13.44.47.42.68-1.03,2.97-.96,4.25-.42.15-.26-.47-.46,0-.56,1.37.08,3.67-.18,5.35-.28v.14l.08-.07.08-.07c.27.01.49-.03.63-.14.17-.52-.53-.27-.63-.56.22-.09.02-.53.31-.56v.56c.81-.21.78.33,1.26.42l-.08-.07s.08-.07-.39-.35c.06-.35.61,0,.47.28l.24.07-.24.07c.16.18.15.52.47.56.08-.16.17-.31.31-.42l.08-.21c.1.1.23.23.28.32.24.08.51.01.71-.11,0-.02.02-.05.02-.07l.16.07c.66.59,1.84-.15,2.52.42.07-.4.68-.33.79-.69l.08-.21.08-.21c-.2-.06-.32-.18-.31-.42.4.02.81.03.79.42h-.31l.08.25-.24.16c-.04.24-.34.55.16.56.46.35.44-.48.79-.42.1.3-.45.44.16.42.49.1.19-.48.79-.28l.08-.21.24.07c-.1-.84-.21-.32-.47-1.11h.16l-.08-.25.24-.16c-.05-.27.21-.28.31-.42-.8,0-.97-.24-1.26.28-.34-.42-1.05-.28-1.42,0-.31-.32.04-.15.16-.42-.38-.06-.34.25-.79.14-.51-.87-2.14.21-3.15-.56-.21.34.46.58,0,.69-.06-.37-.8-.13-.94-.42-.04-.26.18-.31.16-.56-2.58-1.25-6.35-.03-9.44-.14-1.22-.04-2.22-.69-3.15,0-2.18-.19-4.41-.16-6.61-.14-2.45.03-4.89.91-6.77-.28-.34.52-.87.05-1.57.14-.33.45-1.15.47-2.05.42-.06-.24.23-.36,0-.42-.37.89-2.48.57-2.68-.28h.31l-.08-.21.24-.07c-.04-.38-.59-.32-.79-.56.37-.09.42-.46.79-.56,2.31.08,4.2-.04,6.3-.42-.3-.9-1.32-.42-2.05-.42-2.05.01-4.66.01-6.92,0,0-.23-.44-.08-.47-.28.58-.46,2.05-.31,2.68,0,.02-.21.05-.27.31-.28,1.21-.02,2.32-.01,3.62-.28.31,0,.2.38.63.28l-.08-.14.08-.14c0-.23.44-.08.47-.28.12.03.17.11.16.26l-.71.16c.33.2.67-.05.94-.21l-.08.21c1.37.13,3.43.5,5.19.14l.08-.14.08-.14h-.16c-.03-.11-.13-.16-.31-.14.07-.26.45-.25.31-.69-1.09-.53-2.29-.55-3.46-.56.06-.37.8-.13.94-.42l-.24-.07.24-.07v-.28c.5-.02.95,0,1.1.28-.18.03-.24.15-.31.28.83.17,1.53.15,2.05,0l-.08-.21.24-.07c0-.14-.13-.17-.16-.28,1.06.23,2.65-.45,2.83.28.83-.28,1.95-.32,3.15-.28l-.08-.25.24-.16c0-.23-.44-.08-.47-.28,3.9-.56,8.78.33,12.12-.97,2.01-.07,4.2-.52,5.98-.56.33,0,.77-.25,1.1-.28,2.24-.2,4.17-.2,5.98-.28,1.19-.05,2.41.14,2.99-.56l-.24-.07.08-.21c-.85.02-1.78-.14-2.67-.14-.24,0-.34.27-.63.28-.76.03-1.51-.39-2.36-.28-.34.05-.66.28-.94.28-.34,0-.32-.25-.47-.28-.29-.06-.61.2-.79.14-.41-.13-.9-.62-1.1-.83,3.51-.39,7.16-.48,11.65-.83.06-.33-.29-.3-.16-.69l-.08-.21.08-.21c-6.79.3-15.08,1.25-20.93.14Zm-24.71-14.16c.49.03.76.26.79.69-.73.18-1.16-.33-.79-.69ZM11.41,15.6v-.14l-.24.07-.08-.21c-.39.2-.62.34-1.1.14l-.24.07.08-.21c-.12-.03-.31,0-.32-.14l-.24.07-.08-.21c-.12.03-.18.12-.16.28-.59.15-.45-.34-.94-.28.36-.22.3-.29.16-.69.38.08.81.12.79.56.16,0,.19-.11.31-.14l.24-.07.24.07v-.28c.45-.03.8.03.94.28l.24-.07.08.21c.1,0,.19.02.16.14l.24-.07.08.21c.3-.03.35.16.63.14-.13.21-.4.3-.79.28Zm1.73,6.8c.25.38.64.64.79,1.11-.55-.11-.77-.53-.79-1.11Zm.94-6.53c-.26,0-.09-.39-.31-.42,0-.08.13-.16.16,0,.23-.12.34-.35.31-.69l-.24.07s-.08-.21-.71-.21c.14-.4.24-.16.63-.14-.03.21,0,.14,0,.14l.24-.07s.08.21,1.81.07c.23.12.23.45.32.69-.43.1-.32-.28-.63-.28-.07.75-1.23.1-1.57.83Zm1.89,7.91c.23.22.82.11.79.56-.51.04-.76-.16-.79-.56Zm.32-1.25l-.08.14-.08.14c.18.02.17.22.16.42-.27,0-.4-.11-.47-.28l-.16.07-.16-.07c-.33-.04-.03-.66.31-.56l.08-.21-.08-.21c-.2,0-.22-.18-.47-.14.2-.36.33-.44.79-.28l.24-.07-.08.21h.47c.4.37-.4.47-.47.83Zm2.99,1.53c-.26.1-.68-.28-.32-.28-1.12-.28-.76-1.37-1.42-1.81.02-.26.52-.1.47-.42.3.41.6.29.94.42l.08-.07.08-.07c.9.5.12,1.34.16,2.22Zm3.46-5.55v.69h-.47c-.11-.51-.13-.23-.63-.69.06-.47.75-.08,1.1,0Zm-.16,5.55c-.1,0-.19-.02-.16-.14-.12.03-.18.12-.16.28l.24.07-.24.07c-.14.25-.38.41-.47.69-.63-.15-.11-.55.16-.69l-.24-.07.24-.07c0-.54.33-.43.47-.56.1,0,.19.02.16.14v.28Zm.16-1.25c-.56-.7.41-.76,0,0h0Zm2.52-8.47h-.16l.08.21-.24-.07v.28h-.32v-.28h.16l-.08-.21.24.07v-.28h.31v.28Zm3.94,5.41c-.09-.38-.39-.58-.47-.97.79-.14.55.62,1.1.69l.18-.21s.29.07.92-.07c-.04.2-.26.23-.32.42-.21,0-.14-.24-.31-.28l-.18.21s-.29-.07-.92.21Zm1.73,3.89c-.25-.06-.13-.44-.63-.28.26-.16,1.31-.23.47-.56.31-.49.36.41.63.42.05.32-.45.15-.47.42Zm1.42-.28c.35-.43.62-.46-.32-.56-.02-.25.19-.29.16-.56.55.35,1.02.09,1.57.56-.57.1-.75.54-1.42.56Zm6.99,18.55l-.6-.43c.22-.11.37.17.85.07.04.23-.13.27-.25.36Zm1.83-18.41v-.42c.68.3,1.39-.23,1.73.42-.53.22-1.07.12-1.73,0Zm4.41.14c.59-.48.8.38,0,0h0Zm.79-2.78c-.09-.47,1.12-.39.32-.69.14-.29.46-.42.94-.42-.37.42-.22,1.29-1.26,1.11Zm4.25-.14c.19-.02.13-.25.16-.42.37.04.09.61,0,.69-.38-.08-.35-.52-.47-.83.47-.14.28.31.31.56Zm-.63,2.92c.34-.22,1.92-.66,1.73.28-.58-.06-1.05-.04-1.73-.28Zm2.05.69c.19.06.32.18.31.42-.19-.06-.32-.18-.31-.42Zm2.2-4.3c.14.66.77.37.47,1.11-.18-.12-.42-.18-.79-.14-.2-.4-.04-.72.31-.97Zm-.79,3.19c.06-.24-.12-.26-.31-.28.22-.17,1.92-.24,1.73.14-.06.43-.72-.19-1.42.14Zm6.92-9.72c.11-.64.95.11,0,0h0Zm7.4,0c-.28-.06,1.47-.63,1.26.14-.23-.22-.81-.12-1.26-.14Zm.94-2.5v-.28c.13.07.26.14.47.14-.09.29-.25.29-.47.14Zm2.99,1.11c-.81.3.14-.21,0-.28.18.1.16.22,0,.28Zm1.42,1.39c-.22-.61.94,0,.94-.42.49.31-.62.37-.94.42Zm4.72-5.55c.13-.41.51.08.79,0-.04.33-.69.08-.79,0Zm2.99.42c-.11.25-.29.02-.47,0,.12-.25.29-.02.47,0Zm0,1.25c-.43-.12.13-.62.31-.28-.04.15-.31.09-.31.28Zm4.88.28c-.23-.12-.5-.21-.47-.56.14.06.28.12.31.28.31,0,.2-.38.63-.28-.03.12.06.13.16.14.42.33-.85-.33-.63.42Zm5.35.14l-.24.07.08-.21c-.36.04-.6-.02-.79-.14.06-.2.8-.47.94-.14l.24-.07-.08.21h.63c-.13.14-.74.53-.79.28Zm10.7,20.55h-.47c.06-.18.28-.22.31-.42.13-.03.15.05.16.14v.28Zm5.67,2.08h-.63c-.05-.37.22-.46.63-.42v.42Zm-.79-1.94c.56-.23.15-.62-.47-.56.06-.46.91-.22,1.42-.28-.35.24-.36.79-.94.83Zm3.46,14.58c-.45.03-.86.02-.79-.42.11.28.94-.09.79.42Zm-1.89-15.41c.53-.42,1.25.19,2.05,0-.23.63-1.71.18-2.05,0Zm7.24.56c.04-.24.27-.32.63-.28-.04.24-.27.32-.63.28Zm1.89-.14c-.03-.41.56-.49.79-.28-.02.3-.4.3-.79.28Zm19.99.14l.16-.07.16.07c.03-.16.25-.15.47-.14v.42h-.47v-.14l-.08.07-.08.07h-.79c-.04-.11,0-.27-.16-.28.04-.32.69-.08.79,0Zm-2.52,0c.59-.48.8.38,0,0h0Zm-4.09-27.49c-.08.48-.76.21-1.1.14.07-.31.78-.06,1.1-.14Zm6.92,28.88c-.4.12-.73.7-1.26.28l-.08.21-.24-.07c-.22.31-1.42.02-.94,0-.36-.26-1.25.18-1.57.42-.98-.32-1.96-.28-3.15-.14.35-.78-.13-.73.32-1.25l-.08-.21.08-.21c-.3-.28-.68-.28-1.1-.14,0-.14-.13-.17-.16-.28l-.24.07-.08-.21c-.21.04-.3.2-.63.14l-.16.07s-.16-.07-.63.07c.07-.6.47-.14.47-.14l.08-.21.24.07c.21.02.48-.56.63-.14l.24-.07.08.21c.21,0,.14.24.31.28.16,0,.2-.24,0-.28.44-.4.98.45,1.57,0-.16.19-.26.42-.47.56l.08.25-.24.16c.14.24.58.23.63.56l.24-.07-.08.21c.62-.37,1.08-.03,1.42-.56l-.24-.07.24-.07c0-.51-.82-.3-.63-.97.42-.22,1.07.21,1.1-.56.54,0,.59.41.79.69-.35.2-.12.92-.63.97.52.52,1.75.4,2.52.69l.08-.21.24.07c-.08-.2.61-.34.16-.42.07-.31.86-.13.79.14.35-.23,1.07-.62,1.57-.28-.07.43-.87.69-1.26.42Zm5.04-.97l.08.21-.24-.07c-1.08.29-1.53-.03-2.68-.14.77-.24,1.29.17,2.05-.42.03.16.18.22.31.28v-.14h.16c.1-.42.34.13.63,0-.03.16-.17.22-.31.28Zm1.89-27.77l.08-.21.08.21c.41-.26,1.5-.19,1.73.14-.27.32-1.2.05-1.73.14l-.24.07c.13-.2.18-.41.16-.56l-.1.35c-.71.23-.83-.2.02-.14Zm.63,29.16l-.24.07s-.24-.07-1.02.35c-.45-.23.08-.75.16-.97.4.01.23.54.63.56l.11-.24.2-.18c-.05-.27.21-.28.31-.42-.39-.16-.61-.48-1.26-.42.13-.5,1.02-.31,1.73-.42-.12.53.32.76.79,1.11-.15.75-.61.38-1.42.56Zm3.78-.56c-.38.08-.78.13-1.57.14-.1-.23,1.55-.11,1.42-.83.34-.02.07.49.16.69Zm140.7,6.66c.21-.02.31.71.47.28.33.2-.17.29-.47.14v-.42Zm-2.27,1.15l-.56-.08v-.24c.33-.02.45.14.56.32Zm-41-30.54c.04.13.18.17.14.37-.17-.05-.31-.13-.46-.2l.32-.17Zm.3,3.01l.08-.21.24.07c.72,0,1.4.06,1.89.28l.08.21-.24.07c.29.17,1.28.43,1.42.28l.08-.21.24.07c-.16-.65,1.18.02,1.26-.42.44.31-.76.34-.94.56l-.08.21-.24-.07c-.24.59.87-.03.63.56-.41-.04-1.44.15-.94-.28-.48.13-.84.37-1.42.42-.39-.65-1.52-.19-2.36-.42-.22-.06-.29-.69-.94-.42-.03-.26.18-.31.16-.56h-.31c.21-.56,1.1-.15,1.42-.14Zm-25.97,6.11c.71-.46,1.04.34,0,0h0Zm-.79-.28c.3.05-.1.18-.31.14-.3-.05.1-.18.31-.14Zm-3.15-7.22c-.02.31-.67.06-.94.14.22-.34.54-.25.94-.14Zm-5.98-2.64c-.14.2-.12.54-.63.42-.05-.37.33-.36.63-.42Zm.16,1.53c.03.3-.56.06-.79.14-.06-.58.51-.1.79-.14Zm-1.57-1.25c-.21.4-1,.29-1.42.14.14-.34,1.1-.38,1.42-.14Zm-.16,1.25c-.05.19-.39.11-.63.14-.04-.22.15-.24.16-.42h.31c-.03.16.03.25.16.28Zm-3.46,22.35l.24-.07-.08.21c.62.04-.12.43.31.56l.24-.14.24.14h.31l-.08-.25.24-.16c.03-.16.17-.22.31-.28l-.08-.25.24-.16c-.54-.63,1.54-.49,1.73-.14l.08.21.08.21c.06.05.24-.09.16-.14.98.53,2.83.5,4.25.28.19.29.44.54.63.83l.24-.07-.08.21c.41.04.68-.05.63-.42.28.12.46.33.79.42.41.04.55-.94-.16-.69.22-.32,1.1-.05,1.57-.14-.25.87.51.85,1.1.97l.08-.21.24.07c.09-.29.25-.29.47-.14l.24-.07.08.21c.16-.14.32-.27.47-.42l-.28-.14.28-.14v-.14l-.29.07s-.18-.21-.81-.21c.03-.21.38-.13.63,0l.29-.07.18.21c.65.01,1.29.03,1.73-.14.05.32-.46.15-.47.42l-.08.14-.08.14c.16,0,.19.11.32.14.04.26-.18.31-.16.56-.49-.17-1-.32-1.73-.28v-.14l-.16.07-.16.07h-.31l-.24.07-.24-.07c-.73.62-3.48.16-4.09-.14l-.24.07.08-.21h-.31l-.08.21-.24-.07c-.04.24-.27.32-.63.28v-.28l.08-.21.24-.07c-.04-.29-.69-.04-.79-.28-.75.04-.57.89-1.42.83-.29-.26.09-.25,0-.69-.46.3-1.19.23-1.73.14-.37.37-.76.72-1.42.83-.03-.16-.17-.22-.31-.28v.14h-.16c-.39.02-.76.03-.79-.28l-.24.07-.24-.07c-.06.67-.46-.31-.63-.42-.7-.07-.78.19-1.26,0l.08.21-.24-.07c-.51-.03-.67.25-1.26.14v-.83c.82-.23,1.67-.43,2.68-.14Zm14.16,3.33c-.66.07-1.07-.08-1.42-.28.06-.42,1.47-.25,1.42.28Zm-1.89-.42c-.19.73-.97.31-1.42.14.17-.32.99-.05,1.42-.14Zm-14.48-27.07c.03-.35-.24-.43-.47-.56.15-.34.6.19,1.1,0l.08-.21.24.07c.03-.21.38-.13.63-.14.05.37-.22.46-.63.42l-.08.21-.24-.07c-.39,1.19-1.55.73-2.52.69.64-.39,1.53-.01,1.89-.42Zm-3.3,1.25c-.13.41-.51-.08-.79,0,.04-.32.69-.08.79,0Zm-13.38,24.3l-.08-.25.24-.16c-.03-.21-.38-.13-.63-.14,0-.19.08-.3.16-.42,1.45-.02,4.06-.53,5.35,0,.24-.16.64-.17.79-.42.28.14.84.24.47.56,1.03-.01,1.89-.55,2.83,0l.24-.07.24-.07c.5.07.64-.17.79-.42,1.16-.18,1.36.55,2.2.28-.04.24-.27.32-.63.28l.08.21-.24.07v.28c-.36-.1-.8-.12-1.1-.28l-.08.21-.24-.07c-.24.02-.58-.05-.63.14-.18-.02-.17-.22-.16-.42l-.29.07-.18-.21h-.47l.08.25-.24.16s0,.28,0,.28c-1-.07-3.02-.32-4.25-.14-.18.02-.17.22-.16.42-1.52.19-1.86-.48-3.62-.56l.08.25-.24.16c.03.11.13.16.31.14-.22.32-1.1.05-1.57.14.09-.53.61.11.94-.28Zm-34.31.28c.16-.46-.61-1.06.31-.97-.54-.2-.95-1.1-.31-1.53.58-.09.6.3,1.1.28-.05.19-.39.12-.63.14.46.85,1.64,1.05,1.89,2.08-1.06-.02-1.38-.14-2.36,0Zm10.54,10.14c.4.2.44.72,1.26.56,0,.39-2.05-.16-1.89.56-.59-.08-1.03-.29-1.42-.56.06-.44.61-.85-.16-.97.05-.28.32-.37.47-.56v-.14c.12.07.26.14.39.2.14-.04.29-.09.39-.2v.14c.48-.47,2.12-.19,2.52.56-.58.09-1.11.22-1.57.42Zm-1.1-1.11h-.47c-.49-.37.51-.37.47,0Zm.94-8.61c-.93-.03-1.89-.27-2.83-.28-.56,0-1.15.19-1.73.14-1.04-.1-1.88-.6-2.52-1.39h-.63c.08-.85-.45-1.11-.94-1.11.46-.9,2.34-.23,2.52.42.71-.11,1.42-.23,2.05-.42.04.47.71.39.94.69.45-.25.57-.79,1.1-.97,1.06.35,1.35.03,1.89.83,1.47-.33,2.73.16,3.46.42.63-.14,1.21-1.05,2.05-.56.21-.32.56-.52.94-.69,1.39.31,2.24.8,3.46,1.11,1.1-1.05,2.65-.05,4.41-.56v.42c1.36-.04,2.1-.21,2.83.28.09-.52,1.09-.34,1.57-.83.27.18.62.29.63.69.78-.14,2.39-.41,2.52.42.3-.06.28-.4.79-.28-.16.28-.04.9-.47,1.25-1.39,0-2.74.54-3.62-.14-.31.28-1.91.86-2.05,0-.92.58-3.48.64-4.25.14-.53-.05-.67.24-.94.42-.29-.02-.1-.47-.32-.56-.59.06-.64.17-1.26.42-.39-.18.28-.42-.16-.56l-.16.14-.16-.14c-1.42.33-2.83.2-4.56.28-1.48.06-2.96.47-4.56.42Zm5.98,5.97c-.11.25-.29.02-.47,0,.12-.25.29-.02.47,0Zm39.82,7.22c-.37-.09-.42-.46-.79-.56.13-.21.51-.2.79-.28,0,.28.43.18.31.56-.14.06-.28.12-.31.28Zm13.38-4.3c-.37.09-.42.46-.79.56-1.48-.06-2.74-.23-3.78.14-.36-.33-1.17-.23-1.42.28-.09,0-.18-.11,0-.14,0-.14-.13-.17-.16-.28-.3.37-.52-.03-.94,0-.34.02-.45.22-.79.28-.34.06-.53-.13-.94-.14-.72-.01-1.69.28-2.36.28-.29,0-.49-.25-.79-.28-.98-.08-2.01.29-2.83,0-.41.03.22.24,0,.56-.4-.36-1,.26-1.26-.28-.27.18-.62.29-.63.69-.41-.15-.58-.5-1.1-.56-.55.14-.29.24-.47.56-1.4-.85-3.14.08-4.72-.28-.5-.12-2.3-.36-2.2-.83-.51-.12-.33.36-.63.42-.62-.4-1.26-.63-2.05-.56,0,.6-.28.77.31.97-1.04.31-1.85-.39-2.83-.28-.61.07-.91.7-1.57.42-.02-.39.44-.35.63-.56-.72-.66-2.15-.51-3.15-.28-.03.32-.35.52-.16,1.11-.75.11-1.04-.2-1.26-.56.46-.29.07-.44-.47-.83-.64.03-1.01.31-1.26.69-.48.22-.48-.43-.94-.56-.77-.21-1.87,0-2.36.28-1.33-.35-5.08-.39-5.51,0-.49.23-1.77-.72-2.2.14.4.48,1.27.55,1.42,1.25-.22.03-.27.23-.47.28-.44.02-.45-.34-.47-.69-1.48.28-3.34.74-4.56-.28-.25-.49.53-.08.47-.42-.13-.4-.25-.79-.94-.69l-.16.07-.16-.07c-.2.81-1.08,0-1.73,0,.32-.79,1.32.24,1.73-.14l-.08-.21.24.07c1.1-1.61,2.2.17,1.89,1.11.9.05.86-.72,1.73-.69.02-.4-.09-.91.16-1.11,1.41.41,2.01.15,3.78.42.45-.02.29-.58.32-.97.49.31.97.62,1.42.97,1.06.06,1.9-.09,2.52-.42,1.01.31,3.04-.41,3.78.42,1.32-.55,3.06-.94,4.41-.14.4-.02.55-.25.79-.42,2,.37,4.38.78,5.82.14.37.05.65.17.94.28.61-.16.42-.6.31-1.11.78.15.89.45.94.97,1.67-.37,3.86-.24,5.19.28.01.24-.04.43-.16.56h.94c0-.24-.12-.36-.31-.42,1.43-.12,3.64-.58,4.72-.14,1.69-.41,2.49-.06,4.09-.42,1.08.6,2.84.35,4.25.14.35.2.73.38,1.1.56,2.24-.25,4.57-.24,6.29-.14.22-.14-.07-.23.32-.42.42-.04-.15.78.47.56-.63.36-1.65.33-2.36-.14Zm1.42-9.72c.25-.61,1.75-.12,2.52-.28-.13.35-.55.44-.79.69-.38-.31-.89-.51-1.73-.42Zm2.83,10.14c-.61.03-1.16,0-1.57-.14.04-.24.27-.32.63-.28.18-.03.09-.14,0-.14.34-.38,1.11.03.94.56Zm1.89-.28l-.16.07s-.16-.07-1.1-.07c.07-.31.83-.11.94,0l.08-.21.24.07c.1-.19.34-.26.63-.28-.14.2-.24.44-.63.42Zm.16-9.3c-.06.33.29.3.16.69-.7.26-1.52.24-2.36,0-.15-.26.47-.46,0-.56-.4-.34.55.23.47-.28l.08-.14.08-.14c-.11-.29.98-.7,1.1-1.25l-.24-.07.08-.21c-.37-.18-.29.02-.79-.14.66-.5,1.29,0,2.2,0-.04.26.18.31.16.56-.15.15-.58.04-.47.42l.24-.07-.08.21c.18.03.24.15.31.28l.24.07-.08.21c.34.2-.68.86-1.1.42Zm10.7.14c-.21.23-.61.3-.47.83-.48,0-.61-.29-.94-.42l-.24.07c.09-.14.17-.28.16-.42l-.08.21c-.43-.04-.89.31-1.57.28-.57-.02-1.16-.23-1.73-.42-.51.23-.97.05-1.42-.14l-.08.21-.24-.07c-.5.33-.85-.22-.16-.14l.08-.21.24.07c.09-.47.92-.3,1.42-.42-.05.19-.22.27-.16.56.54.06.47-.42.79-.56.8-.15.97.26,1.26.56v-.14h.16c1.62-.58,3.57-.06,5.67-.28-.14.86-1.52.24-2.67.42Zm-6.14-2.36c.28.03.36.24.31.56-.49.07-.56-.35-.31-.56Zm1.26.56c-.06-.58.51-.1.79-.14.03.3-.56.06-.79.14Zm17.94,4.58c-.3.49-1.15.4-1.73.42-1.7.04-3.76.09-5.19-.42,1.51.12,4.66.04,6.92,0Zm.79-16.94c-1.71.33-3.95-.02-5.67-.14l-.08.21-.08-.21c-1.08.14-2.93-.17-4.25-.28-.18-.44.25-.34.31-.56-.11-.51-.47.06-.79-.28-.57.13-.1.41-.16.83-4.4.02-8.38-.87-13.06-.69-.07.43.34.44.79.42-.76.12-1.56.27-2.2.28-.28,0-.61-.3-.94-.28-.35.02-1.39.55-1.57-.14.57-.04,1.03.02,1.42.14.04-.11,0-.27.16-.28-.08-.67-1.21-.41-1.89-.56l-.16.07-.16-.07c-.24,1.23-2.08.8-2.67.14.47-.46,1.91-.51,2.67-.28l.16-.07.16.07c.84-.23,2.04,0,2.83,0,.83-.46,2.65-1.07,3.31-.14.86-.54,2.22-.21,2.99.28.23-.17.24-.53.47-.69,1.38.02,2.8.2,3.78.28,1.06.08,1.87-.27,2.83-.28.63,0,1.15.26,1.73.28,1.6.06,3.96-.27,5.19.28.65-.42,1.3-.22,2.05-.14.92.09,2.01-.06,2.83,0,.83.06,1.89.17,2.2.69-1.15.1-2.11-.41-2.67.28l.24.16-.08.25h.47c-.08.13-.05.3,0,.42h-.16Zm.16-.14v-.14c.6-.11,2.07.09,2.52.56-.99-.25-1.83.17-2.52-.42Zm3.46.42h-.31v-.28h.31v.28Zm2.05,10.83c.56-.03.58.42,1.1.42-.12.18-1.22.07-1.1-.42Zm.79-10.83c-.3-.05.1-.18.31-.14.3.05-.1.18-.31.14Zm.94.14c.21-.36.7-.27,1.1-.14-.07.31-.78.06-1.1.14Zm1.73,0c-.15-.5.62-.19.94-.28.15.5-.62.19-.94.28Zm1.73.14c.16-.32.79-.34.79.14-.37.04-.6-.02-.79-.14Zm8.5-5.69c.3.06.68.05.63.42-.41.04-.68-.05-.63-.42Z"/>
      <path class="cls-1" d="m9.99,12.68c.22,0,.35.07.47.14v-.14h.16c.11-.23-.74-.23-.63,0Z"/>
      <path class="cls-1" d="m37.22,13.52c.62.22,1.52.06,1.89,0-.09,0-.18-.11,0-.14l-.08-.14.08-.14c-.54-.27-1.98-.55-1.89.42Z"/>
      <path class="cls-1" d="m66.81,9.07l-.08-.21.08-.21c-.21-.14-.58-.14-.79-.28-.04.26.18.31.16.56l.24.07-.08.21c.19-.02.45.02.47-.14Z"/>
      <path class="cls-1" d="m101.12,5.32c-.15-.26.47-.46,0-.56l-.24.07.08-.21c-.77-.03-1.37.09-1.73.42.27-.01.49.03.63.14l.31-.14.16.28h.79Z"/>
      <path class="cls-1" d="m109.61,3.52c-.11,1.1-2.78-.04-2.83,1.11.65.43,2.14-.05,3.15-.14l-.08-.21.24.07c.15,0,.08-.99-.47-.83Z"/>
      <path class="cls-1" d="m126.77,2.13c.5-.22.94.17.94-.28l-.24-.16.08-.25c-.92-.29-2.72-.67-2.2.56.05-.17,1,.04,1.1.28l.16-.07.16-.07Z"/>
      <path class="cls-1" d="m135.42,1.44c-.53-.18-2.94-.63-3.15.56.59-.11.75.17,1.26.14l.16-.07.16.07v-.14c.74,0,1.55.07,1.57-.56Z"/>
      <path class="cls-1" d="m218.21,6.16c.08.48,1.03.2,1.57.28.2.55-.52.28-.32.83l.08.21-.08.21c.1.41-1.13.02-1.42.42l-.16.07-.16-.07c0,.14-.13.16-.16.28l.24.16-.08.25c1.37-.3,2.55.03,3.46-.56.3.06.4.3.79.28.62-.32-.22-.54.16-.83,1.21-.38,1.83.51,2.99-.14l.08-.21.08-.21c-.1-.19-.6-.02-.63-.28.41-.25,1.3-.15,1.42-.28-.46-.19.26-.49.63-.42-.05-.32.02-.53.16-.69-.46-.15-1.11-.13-1.42-.42.1,0,.19-.02.16-.14l-.24-.16.08-.25h-1.1l.08.21-.08.21v.28c-.99.27-1.83-.13-2.52,0-.15.03-.13.3-.47.28-.04,0-.26-.24-.47-.28-.74-.13-2.02-.21-2.2.14l.08.14-.08.14c.14.45-.41.29-.47.56Zm5.82.56c-.33.41-.83-.18-1.42,0,.18-.28,1.22-.16,1.42,0Z"/>
      <path class="cls-1" d="m226.39,7.96c0-.54.33-.43.47-.56-.26-.18-.53-.37-1.1-.28l.08.25-.24.16c.14.24.55.25.79.42Z"/>
      <path class="cls-1" d="m217.58,8.8l-.24-.16.08-.25h-.47l-.31.14-.16-.28c-.2,0-.22.18-.47.14l-.31.23-.31-.23c-.16,0-.19.11-.31.14l.08.25-.24.16c1.18.02,1.87.41,2.68-.14Z"/>
      <path class="cls-1" d="m270.93,11.43h-.16l.08.07-.08.07c.09,0,.17-.02.15-.13.1-.08.2-.15.24-.22l-.24.21h0Z"/>
      <path class="cls-1" d="m271.08,12.54c.33-.22.81-.3.94-.69-.59.29-.41-.2-1.1-.14l.08.25-.24.16c.08.16.17.32.31.42Z"/>
      <path class="cls-1" d="m288.08,21.57c-.01-.24.03-.43.16-.56l-.24-.07.08-.21c-.77.34-1.56-.04-1.42-.56-1.04.05-3.52-.04-4.41.14l.08.25-.24.16v.14c-.19.07-.36.15-.47.28l.24.16-.08.25c2.42.28,4.23-.1,6.3,0Z"/>
      <path class="cls-1" d="m288.55,21.57c.9-.18,2.01.03,3.15,0,1.78-.05,4.24-.14,5.04-.56-1.65-.75-4.61.2-6.3-.69-.48.23-.85.55-1.73.42l-.08.21-.24.07c.05.19.22.26.16.56Z"/>
      <path class="cls-1" d="m308.23,24.07l-.24-.07.08-.21c-.75-.02-1.48,0-1.89.28v.14h-.16c.03.16.18.22.31.28-.02.26-.61-.09-.63-.28l-.24-.07.08-.21c-.34.25-1.29-.03-1.57.28l-.08.21-.24.07c.43.56-.55.29-.47.69v.42c2.11,0,3.57-.08,5.19-.69l-.08-.25.24-.16c-.08-.29-.74-.03-.31-.42Z"/>
      <path class="cls-1" d="m310.74,24.21l-.16.07-.16.07c-.2-.06-.32-.18-.31-.42-.46.11-.81.3-1.1.56l.08.25-.24.16c.37.8,1.06-.3,1.89,0l-.08-.21c.29.14.72.03.79-.28l-.55.19c0-.18-.08-.29-.16-.4Z"/>
      <path class="cls-1" d="m312.48,24.35v-.28l.24-.07c-.19-.03-.34.06-.47.14l.08-.21c-.41-.1-1.37-.57-1.57,0l.24.07-.08.21c.18.03.24.15.31.28l.24-.07.08.21c.31-.02.79.24.94.14l-.08-.21.08-.21Z"/>
      <path class="cls-1" d="m312.79,24.35l.39.07-.08.35c.19-.02.45.02.47-.14l.08-.21.08-.21h-.16v-.56c-.3.06-.95-.19-.79.28l-.08.07-.08.07c.12.03.18.12.16.28Z"/>
      <path class="cls-1" d="m314.52,24.48l-.08-.21.24-.07c.35-.31-.37-.38-.47-.69-.05.19-.22.26-.16.56l.24.16-.08.25h.31Z"/>
      <path class="cls-1" d="m265.73,31.84c-.01-.24.04-.43.16-.56-.16,0-.19-.11-.31-.14l-.08.21-.24-.07c-.04.36.06.6.47.56Z"/>
      <path class="cls-1" d="m267.47,32.81l.24-.07.24-.07c.5.07.56-.25,1.1-.14l-.08-.25.24-.16c-.45-.35-2.2-1.05-2.36,0l.08.21-.08.21c.1.19.61.02.63.28Z"/>
      <path class="cls-1" d="m294.06,37.4c-.07.75.47-.41.63.14-.42-.1-.3.29-.47.42l.16.21-.16.21c.19.29.78-.23,1.1-.28l-.28-.14.28-.14c-.17-.35-.81-.75-1.26-.42Z"/>
      <path class="cls-1" d="m130.55,48.09l.24.07-.08.21c.15.14.31.28.47.42-.03-.45.56-.34.79-.56-.02-.16.03-.39-.16-.42h-.16v-.14c-.39.42-.94-.03-1.1.42Z"/>
      <path class="cls-1" d="m130.23,46.84c.03-.3-.13-.44-.47-.42h-.16v-.14c-.16,0-.19.11-.31.14l.08.25-.24.16c.06.47.75.08,1.1,0Z"/>
      <path class="cls-1" d="m88.21,45.45l-.18.21-.29-.07c-.02.34.08.58.31.69.05-.33.55-.26.47-.69-.03-.11-.13-.16-.32-.14Z"/>
      <path class="cls-1" d="m40.52,41.98c.18.28-.08.57.47.28.3.37-.13-.36-.31-.42v.14h-.16Z"/>
      <path class="cls-1" d="m36.91,42.26l-.08-.35-.08.35h.16Z"/>
      <path class="cls-1" d="m15.66,22.82l.24-.07-.24-.07v.14Z"/>
      <path class="cls-1" d="m15.82,22.96c.12-.03.31,0,.31-.14l-.24-.07-.08.21Z"/>
      <path class="cls-1" d="m127.87,2.83l-.08-.28-.08-.28c-.12.03-.31,0-.31.14l.28.14.04.28h.16Z"/>
      <path class="cls-1" d="m203.88,32.12c-.11.37.33.27.47.42v-.14h.16c-.1-.19-.34-.26-.63-.28Z"/>
      <path class="cls-1" d="m207.66,33.09v-.14h.16c.1,0,.19-.02.16-.14-.69-.2-1.01.08-.32.28Z"/>
      <path class="cls-1" d="m246.53,12.68c.1,0,.19-.02.16-.14l.08-.21-.08-.21h-.63c.05.28.43.27.47.56Z"/>
      <path class="cls-1" d="m278.64,12.41c-.32-.04-.31-.37-.47-.56-.75.06-.66.06-1.42,0l.08.25-.24.16c.01.24-.03.43-.16.56l.08.21-.24.07c.3.45.64.14,1.42.28-.47-.67.63-.99.94-.97Z"/>
      <path class="cls-1" d="m16.6,41.01c.22-.58-1.14-.44,0,0h0Z"/>
      <path class="cls-1" d="m18.65,41.01c.51-.17.12.45.63.28.12-.31-.58-.57-.63-.28Z"/>
      <path class="cls-1" d="m20.85,7.55c.21-.61-1.39-.16-.79,0,.13-.41.4.18.79,0Z"/>
      <path class="cls-1" d="m37.54,45.17c.22.05.27.17.47,0,.04.11,0,.27.16.28.17-.35-.53-.62-.63-.28Z"/>
      <path class="cls-1" d="m40.68,42.95c-.06-.24.23-.36,0-.42-.31.52-.75-.61-.94.14.59-.15.45.34.94.28Z"/>
      <path class="cls-1" d="m40.84,6.99c-.17.47-.05-.39-.47-.14-.19.49,1.06.48.47.14Z"/>
      <path class="cls-1" d="m58.62,11.57c0,.08-.02.16-.16.14,0-.08-.13-.16-.16,0,.14.28.8.04.31-.14Z"/>
      <path class="cls-1" d="m70.9,46.7c.98-.1.36-.65,0,0h0Z"/>
      <path class="cls-1" d="m103.48,5.05c.03-.16.25-.15.47-.14.22-.83-1.08-.5-1.1-.42.4.01.22.54.63.56Z"/>
      <path class="cls-1" d="m106.15,46.14c-.02.16.03.39-.16.42-.04-.11,0-.27-.16-.28.39,1.33,1.22.34,1.89.83.21-.37.1-.53,0-.83-.67.08-1.04-.1-1.57-.14Z"/>
      <path class="cls-1" d="m110.72,46.56v.56c.87-.11,1.23.46,1.26.69.09-.2.24-.34.47-.42-.03.3.13.44.47.42,1.15-.36,1.63.13,2.52-.28.02.16-.03.39.16.42.02-.4,1.08.12,1.1-.28l-.24-.16.08-.25c-2.11-.56-3.71-.74-5.82-.69Z"/>
      <path class="cls-1" d="m117.01,2.96c1.17-.45,3.32-.88,4.72-.28.04-.2.26-.23.31-.42l.08-.21.24.07v-.42c-2.51.04-4.14.03-6.45.28l-.08.14-.08.14c.51.15.99.33,1.26.69Z"/>
      <path class="cls-1" d="m122.52,47.67l-.08.14-.08.14c.87.44,1.32.16,2.2.14v-.56c-1-.05-1.39-.48-2.05.14Z"/>
      <path class="cls-1" d="m120,46.98c-.07.27-.45.25-.31.69.71-.16,1,.78,1.57.28l-.08-.21.08-.21c-.49-.12-.73-.46-1.26-.56Z"/>
      <path class="cls-1" d="m152.74,31.57c.43-.09-.83.18,0,0h0Z"/>
      <path class="cls-1" d="m180.12,1.44c.84-.44-.53.06,0,.14,0,0,0-.14,0-.14Z"/>
      <path class="cls-1" d="m191.45,47.67v.97c.22,0,.35-.07.47-.14l-.08-.25.24-.16c-.14-.2-.13-.54-.63-.42Z"/>
      <path class="cls-1" d="m252.99,5.05c.78-.18.25-.66,0,0h0Z"/>
      <path class="cls-1" d="m262.43,42.67c.04-.36.27.19.63,0,.21-.61-1.22-.12-.63,0Z"/>
      <path class="cls-1" d="m265.1,41.56c0,.23-.44.08-.47.28.32.12.87-.22.47-.28Z"/>
      <path class="cls-1" d="m274.08,12.54c.27.01.49-.03.63-.14.75.2-.36-.49-.63.14Z"/>
      <path class="cls-1" d="m289.34,14.49l.08-.14.08-.14c-.73-.25-.49-.23-.31-.83-.62-.18-.38.4-.79.42-.78-.65-2.08-.08-3.15-.56v.28l.24.07-.24.07c.05.28.43.27.47.56-.12.22-.77-.03-.63.42l.08.21-.08.21c1.45-.47,3.07.06,4.25-.56Z"/>
      <path class="cls-1" d="m281.16,5.05c.04-.32-.04-.52-.31-.56l-.08.21-.08-.21c-1.38-.01-.4,1.1.47.56Z"/>
      <path class="cls-1" d="m297.37,14.77c-.09.02-.19-.04-.16-.14l.08-.21.08-.21c-.23-.08-.38-.22-.47-.42l-.24-.07.08-.21c-.68-.26-1.65.59-1.26,0-.68-.07-.2.37-.47.42-.38-.48-1.37-.16-1.89.28.39.02.05.47,0,.56,1.28-.08,3.15.29,4.25,0Z"/>
      <path class="cls-1" d="m299.57,14.77l-.08-.21c.25.21.69.18.94,0l-.08.21c.79,0,1.51-.05,2.05-.28l-.08-.21.24-.07c-.06-.24.23-.36,0-.42-.11.27-.42.37-.79.42-.21-.47-1.06-1.1-1.73-.69.28.03.36.24.31.56-.12.03-.31,0-.31.14h.16v.35h-.44c.04-.07.1-.12.13-.21l-.24-.07.24-.07c-.09-.44.3-.43,0-.69-.62.18-1.88.1-2.05.28.49.14-.34.23-.31.42l.08.21-.08.21c.45.34.86,0,2.05.14Z"/>
      <path class="cls-1" d="m295.16,39.48c.11.11.88.31.94,0-.43-.06-.74-.13-.94,0Z"/>
      <path class="cls-1" d="m30.22,4.98h-.31c.12.02.24.05.31,0Z"/>
      <path class="cls-1" d="m47.58,46.31c.05.08.11.19.26.32l-.26-.32Z"/>
      <path class="cls-1" d="m47.58,46.31c-1.09-.38-2.31-.47-3.54-.56l3.54.56Z"/>
      <path class="cls-1" d="m44.04,45.74l-3.6-.57c1.12.39,2.36.48,3.6.57Z"/>
      <path class="cls-1" d="m50.2,46.49l-.84-.06c.28.05.56.08.84.06Z"/>
      <path class="cls-1" d="m47.58,46.31l1.79.13c-.61-.1-1.22-.28-1.79-.13Z"/>
      <path class="cls-1" d="m42.2,6.99h.53c-.17-.13-.35-.03-.53,0Z"/>
      <path class="cls-1" d="m52.41,46.98l.63-.07c-.22-.08-.42.02-.63.07Z"/>
      <path class="cls-1" d="m54.45,11.78l3.46.14c-1.16-.09-2.3-.22-3.46-.14Z"/>
      <path class="cls-1" d="m56.66,45.52l-.31-.14c.1.05.18.09.31.14Z"/>
      <path class="cls-1" d="m60.83,8.87c-.23-.06-.47-.12-.71-.14l.71.14Z"/>
      <path class="cls-1" d="m61.54,9l-.71-.14c.23.06.46.12.71.14Z"/>
      <path class="cls-1" d="m90.81,3.59l.79.14c-.23-.11-.52-.13-.79-.14Z"/>
      <path class="cls-1" d="m92.46,46.21h.39c-.11-.06-.27,0-.39,0Z"/>
      <path class="cls-1" d="m109.85.4l2.68-.07c-.88-.05-1.79.04-2.68.07Z"/>
      <path class="cls-1" d="m121.18.9l-.63.05c.21,0,.42,0,.63-.05Z"/>
      <path class="cls-1" d="m155.49,1.09l1.89-.07c-.63.04-1.28-.08-1.89.07Z"/>
      <path class="cls-1" d="m160.21,32.75l-.08-.28c.02.11.02.21.08.28Z"/>
      <path class="cls-1" d="m164.78,1.28c-.96-.18-1.94-.15-2.91-.25l2.91.25Z"/>
      <path class="cls-1" d="m162.73,32.33l.39.14c0-.08-.02-.13-.05-.18-.08,0-.21.03-.34.04Z"/>
      <path class="cls-1" d="m172.01,1.23l-.94-.05c.31.08.63.03.94.05Z"/>
      <path class="cls-1" d="m168.63,1.3l-.6.02c.2-.04.42.13.6-.02Z"/>
      <path class="cls-1" d="m186.35,1.4l-2.38.06c.79.06,1.59,0,2.38-.06Z"/>
      <path class="cls-1" d="m186.35,1.4l1.56-.04c-.52-.03-1.04,0-1.56.04Z"/>
      <path class="cls-1" d="m189.8,1.44c.32.01.64-.03.94-.14l-.94.14Z"/>
      <path class="cls-1" d="m196.88,1.37l-1.1.07c.37.1.74.04,1.1-.07Z"/>
      <path class="cls-1" d="m199.4,1.65l1.18-.21c-.4.12-.81-.06-1.18.21Z"/>
      <path class="cls-1" d="m215.61,1.37l-1.1.21c.38.04.76-.08,1.1-.21Z"/>
      <path class="cls-1" d="m225.13,1.44l-.87.14c.31.06.57-.11.87-.14Z"/>
      <path class="cls-1" d="m227.57,5.6l.94-.07c-.3-.2-.62.11-.94.07Z"/>
      <path class="cls-1" d="m232.47,7.79l-2.23.1c.72.05,1.56.22,2.23-.1Z"/>
      <path class="cls-1" d="m237.9,6.09c.06.18.08.4.21.56l-.21-.56Z"/>
      <path class="cls-1" d="m232.76,5.46c-.37-.04-.73.06-1.1.07l1.1-.07Z"/>
      <path class="cls-1" d="m232.45,1.58h.63c-.29,0-.49-.03-.63,0Z"/>
      <path class="cls-1" d="m234.81,7.75c-.11-.06-.21-.12-.32-.14l.32.14Z"/>
      <path class="cls-1" d="m235.6,3.94l.47.07c-.09-.06-.28-.06-.47-.07Z"/>
      <path class="cls-1" d="m238.27,1.71c.26,0,.52-.02.79-.07l-.79.07Z"/>
      <path class="cls-1" d="m247.08,5.63h-1.92c.64.07,1.27.27,1.92,0Z"/>
      <path class="cls-1" d="m244.41,5.63h.76c-.25-.03-.5-.04-.76,0Z"/>
      <path class="cls-1" d="m242.13,7.73c-.08.02-.16.07-.25.11-.06.14-.11.27-.15.47l.39-.58Z"/>
      <path class="cls-1" d="m249.76,7.41l.47.07c-.16-.04-.29-.06-.47-.07Z"/>
      <path class="cls-1" d="m254.64,5.67l1.54-.05c-.51,0-1.03-.02-1.54.05Z"/>
      <path class="cls-1" d="m255.43,12.41l1.1.07c-.35-.19-.72-.09-1.1-.07Z"/>
      <path class="cls-1" d="m263.61,5.67h.31c-.07,0-.19,0-.31,0Z"/>
      <path class="cls-1" d="m272.11,5.6l.9.07c-.3-.04-.6-.08-.9-.07Z"/>
      <path class="cls-1" d="m275.88,30.45c.94.11,1.88.06,2.81.05l-2.81-.05Z"/>
      <path class="cls-1" d="m281.47,32.58c-.02-.21-.1-.33-.24-.39l.24.39Z"/>
      <path class="cls-1" d="m281.47,32.58l.55.09c-.22-.06-.41-.06-.55-.09Z"/>
      <path class="cls-1" d="m281.47,32.58l-1.97-.12c.54.36,1.35.22,1.97.12Z"/>
      <path class="cls-1" d="m298.51,39.2l.04-.9c.08.33-.31.59-.04.9Z"/>
      <path class="cls-1" d="m311.61,26.08c-2.63-.04-5.31.48-7.87.69l7.87-.69Z"/>
      <path class="cls-1" d="m311.06,14.77h.94c-.32-.02-.64-.07-.94,0Z"/>
      <path class="cls-1" d="m316.65,25.6l-3.78.35c1.19-.09,2.55-.14,3.78-.35Z"/>
      <path class="cls-1" d="m319.08,14.63l-5.11.14c1.73,0,3.45.02,5.11-.14Z"/>
      <path class="cls-1" d="m320.11,23.86l-.87.21c.28-.08.6-.13.87-.21Z"/>
      <path class="cls-1" d="m321.05,14.83c.28.05.52-.03.79-.07l-.79.07Z"/>
      <path class="cls-1" d="m323.73,22.96l.31.35c.01-.13-.02-.23-.05-.32-.08,0-.17-.02-.27-.02Z"/>
      <path class="cls-1" d="m1.57,38.85c-.47-.28-1.02-.41-1.57-.46l1.57.46Z"/>
      <path class="cls-1" d="m2.75,34.76l-.71.07c.21.15.5.02.71-.07Z"/>
      <path class="cls-1" d="m39.03,13.24l.68.15c-.22-.1-.42-.26-.68-.15Z"/>
      <path class="cls-1" d="m60.59,12.06l-1.18-.21c.32.25.78.2,1.18.21Z"/>
      <path class="cls-1" d="m61.54,9.84l-.32-.14c.1.05.18.09.32.14Z"/>
      <path class="cls-1" d="m66.41,9l-.94.14c.33.11.66.03.94-.14Z"/>
      <path class="cls-1" d="m64.68,4.77h1.14c-.38-.14-.76,0-1.14,0Z"/>
      <path class="cls-1" d="m65.82,4.77l.75-.35c-.28.05-.61.09-.75.35Z"/>
      <path class="cls-1" d="m100.09,5.53l.08-.49c-.04.18-.08.35-.08.49Z"/>
      <path class="cls-1" d="m100.88,4.84c.09-.09.12-.19.16-.28l-.16.28Z"/>
      <path class="cls-1" d="m110.16,4.56l.24.21c-.05-.11-.14-.16-.24-.21Z"/>
      <path class="cls-1" d="m110.16,4.56l-.31-.27c.06.15.19.21.31.27Z"/>
      <path class="cls-1" d="m124.01,2.48l-.32-.42c.06.17.18.32.32.42Z"/>
      <path class="cls-1" d="m137.55,1.51c-.23.09-.41.19-.63.28l.63-.28Z"/>
      <path class="cls-1" d="m146.2,1.28c1.03,0,2-.11,2.99-.12l-2.99.12Z"/>
      <path class="cls-1" d="m187.75,3.87l1.57.07c-.48-.29-1.05-.13-1.57-.07Z"/>
      <path class="cls-1" d="m213.83,3.95c0,.15,0,.33.05.47l.16-.62c-.08.05-.16.1-.21.15Z"/>
      <path class="cls-1" d="m225.37,4.75l1.73.02c-.56-.09-1.16-.11-1.73-.02Z"/>
      <path class="cls-1" d="m225.21,7.34l.63.05c-.21-.04-.42-.04-.63-.05Z"/>
      <path class="cls-1" d="m214.19,8.91l.94-.14c-.33-.14-.62.1-.94.14Z"/>
      <path class="cls-1" d="m232.86,9.18c-.07-.03-.15-.06-.26-.1l.26.76c.05-.22.06-.49,0-.66Z"/>
      <path class="cls-1" d="m238.53,8.49l.26.23c-.05-.09-.16-.16-.26-.23Z"/>
      <path class="cls-1" d="m240.55,8.93l-.7-.07c.22.09.46.08.7.07Z"/>
      <path class="cls-1" d="m240.55,8.93l.71.07c-.22-.09-.47-.08-.71-.07Z"/>
      <path class="cls-1" d="m244.46,8.77l-.56.21c.11,0,.22,0,.3-.03.08-.12.18-.15.26-.19Z"/>
      <path class="cls-1" d="m277.93,10.81l.24.45c-.02-.11-.1-.28-.24-.45Z"/>
      <path class="cls-1" d="m258.35,12.61c-.19-.03-.37-.1-.57,0h.57Z"/>
      <path class="cls-1" d="m255.9,13.03l-1.73-.05c.57.03,1.17.14,1.73.05Z"/>
      <path class="cls-1" d="m272.74,13.72c.07-.09.14-.18.16-.28l-.16.28Z"/>
      <path class="cls-1" d="m293.51,16.99l2.99-.21c-1-.17-1.99.16-2.99.21Z"/>
      <path class="cls-1" d="m280.38,21.45l1.49-.13c-.49.07-1.04-.16-1.49.13Z"/>
      <path class="cls-1" d="m281.47,20.6l.87-.02c-.28-.08-.58-.04-.87.02Z"/>
      <path class="cls-1" d="m288,20.94h.63c-.21-.07-.42-.05-.63,0Z"/>
      <path class="cls-1" d="m302.17,24.48l1.73-.07c-.56-.06-1.2-.16-1.73.07Z"/>
      <path class="cls-1" d="m310.59,24.28l.39-.28c-.17.08-.33.15-.39.28Z"/>
      <path class="cls-1" d="m315.86,24.21l-1.42.07c.46.17.94-.1,1.42-.07Z"/>
      <path class="cls-1" d="m313.66,24.41c.25-.05.38-.09.63-.19l-.63.19Z"/>
      <path class="cls-1" d="m313.18,24.41l-.79.14c.26-.01.52,0,.79-.14Z"/>
      <path class="cls-1" d="m309.09,24.74l-.79-.09c.26.06.52.05.79.09Z"/>
      <path class="cls-1" d="m302.17,24.48l-1.1.07c.37.03.73-.05,1.1-.07Z"/>
      <path class="cls-1" d="m299.41,27.12l-.87.21c.28-.13.67.12.87-.21Z"/>
      <path class="cls-1" d="m270.85,30.48c.78.03,1.57-.06,2.36-.09l-2.36.09Z"/>
      <path class="cls-1" d="m264.87,31.08l.63.28c-.13-.14-.37-.19-.63-.28Z"/>
      <path class="cls-1" d="m265.28,32.71l-.57.38c.25-.03.41-.19.57-.38Z"/>
      <path class="cls-1" d="m265.28,32.71l.91-.61c-.47.04-.69.34-.91.61Z"/>
      <path class="cls-1" d="m266.19,32.11l.25-.4c-.2.14-.26.3-.25.4Z"/>
      <path class="cls-1" d="m266.19,32.11c.19.13.47.19.72.22l-.72-.22Z"/>
      <path class="cls-1" d="m268.33,33.02l-.63-.05c.21.04.42.04.63.05Z"/>
      <path class="cls-1" d="m295.05,37.95l1.77-.07c-.61-.18-1.16.08-1.77.07Z"/>
      <path class="cls-1" d="m293.42,38.13l.96.03c-.31-.12-.64-.05-.96-.03Z"/>
      <path class="cls-1" d="m293.43,39.62l-.24-.21c.09.14.16.16.24.21Z"/>
      <path class="cls-1" d="m285.33,40.1l-1.26-.28c-.03.13-.09.27-.12.38.43.27.91-.16,1.38-.1Z"/>
      <path class="cls-1" d="m256.05,43.12l2.37-.03c-.79-.23-1.58-.12-2.37.03Z"/>
      <path class="cls-1" d="m256.05,43.12l-3.3.04c1.03.49,2.15.18,3.3-.04Z"/>
      <path class="cls-1" d="m213.88,47.81l.63.07c-.27-.09-.4-.07-.63-.07Z"/>
      <path class="cls-1" d="m193.73,47.6c-.05-.12-.1-.19-.16-.28l.16.28Z"/>
      <path class="cls-1" d="m129.21,48.16h1.57c-.5.01-1.04-.12-1.57,0Z"/>
      <path class="cls-1" d="m120.61,45.98c.06-.1.11-.26.15-.46l-.52.6c.12-.05.24-.08.37-.14Z"/>
      <path class="cls-1" d="m118.66,46.07l-.63-.42c.14.19.28.34.4.43.06,0,.13,0,.23-.01Z"/>
      <path class="cls-1" d="m111.11,45.8c.11.06.21.12.32.14l-.32-.14Z"/>
      <path class="cls-1" d="m100.25,45.03c-.16,0-.31.03-.47.07l.47-.07Z"/>
      <path class="cls-1" d="m74.75,45.06l-1.42.05c.44.11.95-.04,1.42-.05Z"/>
      <path class="cls-1" d="m69.56,44.13l-.16.28c.09-.09.12-.18.16-.28Z"/>
      <path class="cls-1" d="m64.29,44.27l-.24-.83c-.19.35.24.54.24.83Z"/>
      <path class="cls-1" d="m62.48,43.71c.22.11.39.27.63.35l-.63-.35Z"/>
      <path class="cls-1" d="m38.09,42.33l-1.26-.42c.3.37.76.56,1.26.42Z"/>
      <path class="cls-1" d="m35.49,41.56l.87.07c-.27-.13-.57-.06-.87-.07Z"/>
      <path class="cls-1" d="m30.69,40.94l-1.02-.49c.19.42.64.37,1.02.49Z"/>
      <path class="cls-1" d="m29.67,40.45l-1.18.35c.42-.02.88-.02,1.18-.35Z"/>
      <path class="cls-1" d="m9.76,15.53c.18-.25.21-.36.26-.46l-.26.46Z"/>
      <path class="cls-1" d="m9.6,14.7l.42.37c-.07-.14-.24-.23-.42-.37Z"/>
      <path class="cls-1" d="m9.29,15.25l.32-.56c-.18.24-.21.35-.32.56Z"/>
      <path class="cls-1" d="m11.02,14.7l-1,.37c.36-.02.84-.01,1-.37Z"/>
      <path class="cls-1" d="m11.17,15.53l.31-.56c-.1.19-.21.35-.31.56Z"/>
      <path class="cls-1" d="m15.9,22.19c.16-.11.22-.28.29-.43l-.29.43Z"/>
      <path class="cls-1" d="m19.04,21.92l-.24.49c.16-.12.21-.31.24-.49Z"/>
      <path class="cls-1" d="m127.48,1.69h1.57c-.51-.07-1.06-.08-1.57,0Z"/>
      <path class="cls-1" d="m127,2.76c.25-.08.54-.14.67-.21l-.67.21Z"/>
      <path class="cls-1" d="m130.86,1.78l-.24.42c.14-.19.2-.31.24-.42Z"/>
      <path class="cls-1" d="m131.57,31.77c-.1.12-.19.26-.24.35l.24-.35Z"/>
      <path class="cls-1" d="m137.47,30.38c.02.09.05.16.08.28l-.08-.28Z"/>
      <path class="cls-1" d="m142.19,30.59l.55.49c-.15-.22-.38-.34-.55-.49Z"/>
      <path class="cls-1" d="m144.95,32.33c-.01-.14-.07-.22-.13-.31l.13.31Z"/>
      <path class="cls-1" d="m172.25,33.37l.39-.49c-.28.05-.37.26-.39.49Z"/>
      <path class="cls-1" d="m168.79,43.3c-.02-.08-.1-.25-.24-.42l.24.42Z"/>
      <path class="cls-1" d="m197.51,32.88l-.08-.42c.02.14.02.28.08.42Z"/>
      <path class="cls-1" d="m198.93,32.61l-.31-.14c.07.04.19.08.31.14Z"/>
      <path class="cls-1" d="m204.59,32.75c-.11-.14-.16-.25-.24-.35l.24.35Z"/>
      <path class="cls-1" d="m206.48,32.4c.04.15.09.39.16.62l-.16-.62Z"/>
      <path class="cls-1" d="m206.01,31.77l-.32.14c.11-.03.21-.06.32-.14Z"/>
      <path class="cls-1" d="m204.28,6.92c.06.19.08.37.16.56l-.16-.56Z"/>
      <path class="cls-1" d="m209.47,31.5l-2.05.09c.68-.01,1.38.09,2.05-.09Z"/>
      <path class="cls-1" d="m207.9,32.33l-.94-.05c.31.08.63.03.94.05Z"/>
      <path class="cls-1" d="m213.25,32.61l.79.28s-.06-.09-.09-.14c-.17-.07-.45-.06-.7-.14Z"/>
      <path class="cls-1" d="m216.63,8.52l.39-.49c-.16.04-.29.19-.39.49Z"/>
      <path class="cls-1" d="m217.89,8.17l.26-.45c-.1.14-.22.28-.26.45Z"/>
      <path class="cls-1" d="m215.58,7.37l2.72.07s-.07-.08-.1-.12c-.85-.31-1.73-.06-2.62.05Z"/>
      <path class="cls-1" d="m215.58,7.37l-1.39-.03c.47.11.93.09,1.39.03Z"/>
      <path class="cls-1" d="m217.34,5.6c.48,0,.95-.05,1.42-.14l-1.42.14Z"/>
      <path class="cls-1" d="m219.54,7.48l-.62-.02c.2.04.4.09.62.02Z"/>
      <path class="cls-1" d="m218.31,7.44l.62.02c-.2-.04-.4-.08-.62-.02Z"/>
      <path class="cls-1" d="m221.43,32.4l-1.46-.14c.5.02.94.22,1.46.14Z"/>
      <path class="cls-1" d="m247.24,19.69c.03-.18-.1-.47-.16-.65l.16.65Z"/>
      <path class="cls-1" d="m247.08,19.05c-.53-.09-1.06-.11-1.59-.14l1.59.14Z"/>
      <path class="cls-1" d="m245.49,18.91l-1.32-.12c.44.07.88.09,1.32.12Z"/>
      <path class="cls-1" d="m247.08,19.05l2.36-.12c-.79.02-1.57.02-2.36.12Z"/>
      <path class="cls-1" d="m251.02,19l1-.03c-.33-.02-.66-.05-1,.03Z"/>
      <path class="cls-1" d="m252.75,18.95l-.73.02c.24.01.48.02.73-.02Z"/>
      <path class="cls-1" d="m225.37,10.16h3.22c-1.07-.05-2.14-.13-3.22,0Z"/>
      <path class="cls-1" d="m230.87,10.16h-2.29c.76.04,1.52.07,2.29,0Z"/>
      <path class="cls-1" d="m229.62,33.02l-2.83.35c.94.01,1.99.05,2.83-.35Z"/>
      <path class="cls-1" d="m227.73,31.91h.31c-.07-.05-.19-.02-.31,0Z"/>
      <path class="cls-1" d="m235.99,33.65c.16.09.45.07.63.14l-.63-.14Z"/>
      <path class="cls-1" d="m232.76,33.99l-.31-.42c.08.17.2.3.31.42Z"/>
      <path class="cls-1" d="m250.7,12.89l-.47-.42c.17.17.26.31.47.42Z"/>
      <path class="cls-1" d="m248.42,12.41l.55-.07c-.2-.07-.38,0-.55.07Z"/>
      <path class="cls-1" d="m252.28,9.05h.94c-.31-.07-.63-.02-.94,0Z"/>
      <path class="cls-1" d="m263.61,9.74h.92c-.3-.06-.62-.07-.92,0Z"/>
      <path class="cls-1" d="m280.38,21.45v.36c.04-.12.07-.24,0-.36Z"/>
      <path class="cls-1" d="m280.37,22.33v-.52c-.06.17-.15.34,0,.52Z"/>
      <path class="cls-1" d="m279.82,21.31l.56.13s-.31-.08-.56-.13Z"/>
      <path class="cls-1" d="m305.47,24.14l.71.07c-.21-.11-.47-.19-.71-.07Z"/>
      <path class="cls-1" d="m276.51,13.03c-.16-.06-.29-.11-.47-.14l.47.14Z"/>
      <path class="cls-1" d="m19.52,41.35l.37-.03c-.13-.02-.25-.03-.37.03Z"/>
      <path class="cls-1" d="m20.38,41.28l-.5.04c.17.02.34.05.5-.04Z"/>
      <path class="cls-1" d="m25.42,42.37c.09-.01.18-.01.31-.11l-.71-.21c.22.04.33.17.4.32Z"/>
      <path class="cls-1" d="m48,6.64c.1.04.18.07.31.07l-.31-.07Z"/>
      <path class="cls-1" d="m62.37,45.45l-.75-.21c.2.15.48.18.75.21Z"/>
      <path class="cls-1" d="m63.11,45.66c-.21-.15-.48-.18-.74-.21l.74.21Z"/>
      <path class="cls-1" d="m116.78,47.4l.62-.21c-.27-.06-.43.1-.62.21Z"/>
      <path class="cls-1" d="m116.78,47.4l-.32.11c.13,0,.23-.05.32-.11Z"/>
      <path class="cls-1" d="m113.16,2.34l2.67-.21c-.88.09-1.82-.09-2.67.21Z"/>
      <path class="cls-1" d="m122.13,2.06c.1.06.21.12.31.14l-.31-.14Z"/>
      <path class="cls-1" d="m122.44,47.81c-.41-.09-.84-.07-1.26-.07l1.26.07Z"/>
      <path class="cls-1" d="m162.26,43.85l-.31-.28c.06.13.17.22.31.28Z"/>
      <path class="cls-1" d="m223.32,8.24l.44.03c-.14-.04-.28-.07-.44-.03Z"/>
      <path class="cls-1" d="m224.42,8.31l-.66-.04c.22.06.43.15.66.04Z"/>
      <path class="cls-1" d="m228.2,18.44c-.16-.04-.29-.06-.47-.07l.47.07Z"/>
      <path class="cls-1" d="m230.46,46.61c.14.01.28.03.42.02l-.63-.28c.07.08.13.18.21.26Z"/>
      <path class="cls-1" d="m271.16,7.55l-.47.07c.13.04.25.04.47-.07Z"/>
      <path class="cls-1" d="m276.83,32.54l.94-.35c-.25.05-.5.1-.76.06-.11.09-.14.25-.19.29Z"/>
      <path class="cls-1" d="m289.89,13.59l-.47.76c.25-.04.47-.1.55-.23,0-.15,0-.35-.07-.53Z"/>
      <path class="cls-1" d="m280.61,14.7l-1.02.35c.41.09.72-.14,1.02-.35Z"/>
      <path class="cls-1" d="m280.61,14.7l-.58-.6c.09.26.39.4.58.6Z"/>
      <path class="cls-1" d="m279.19,14.07l.84.02c-.28-.05-.56-.01-.84-.02Z"/>
      <path class="cls-1" d="m280.53,13.41l-.5.68c.23-.18.45-.4.5-.68Z"/>
      <path class="cls-1" d="m280.53,13.41l.87-.1c-.3-.03-.58.06-.87.1Z"/>
      <path class="cls-1" d="m283.09,14.77l-2.48-.08c.82.2,1.65.13,2.48.08Z"/>
      <path class="cls-1" d="m283.09,14.77l2.08.06c-.69-.15-1.39-.11-2.08-.06Z"/>
      <path class="cls-1" d="m296.66,13.72l.47-.07c-.16,0-.31.03-.47.07Z"/>
      <path class="cls-1" d="m302.32,14.28c.95.18,1.94.26,2.91.35l-2.91-.35Z"/>
      <path class="cls-1" d="m299.65,14.28c.17-.01.38,0,.55-.07l-.55.07Z"/>
      <path class="cls-1" d="m300.83,26.91c.22.05.4.18.63.21l-.63-.21Z"/>
    </g>
  </g>
</svg>